TiffanyGothicCC.ufo
<glyph name="exclam" format="2">
  <advance width="325"/>
  <unicode hex="0021"/>
  <outline>
    <contour>
      <point x="115" y="0" type="line"/>
      <point x="115" y="145" type="line"/>
      <point x="210" y="145" type="line"/>
      <point x="210" y="0" type="line"/>
    </contour>
    <contour>
      <point x="100" y="700" type="line"/>
      <point x="225" y="700" type="line"/>
      <point x="185" y="185" type="line"/>
      <point x="140" y="185" type="line"/>
    </contour>
  </outline>
</glyph>
<glyph name="numbersign" format="2">
  <advance width="605"/>
  <unicode hex="0023"/>
  <outline>
    <contour>
      <point x="215" y="700" type="line"/>
      <point x="215" y="665" type="line"/>
      <point x="180" y="695" type="line"/>
      <point x="181" y="700" type="line"/>
    </contour>
    <contour>
      <point x="302" y="700" type="line"/>
      <point x="336" y="700" type="line"/>
      <point x="337" y="695" type="line"/>
      <point x="302" y="665" type="line"/>
    </contour>
    <contour>
      <point x="425" y="700" type="line"/>
      <point x="425" y="665" type="line"/>
      <point x="390" y="695" type="line"/>
      <point x="391" y="700" type="line"/>
    </contour>
    <contour>
      <point x="512" y="700" type="line"/>
      <point x="546" y="700" type="line"/>
      <point x="547" y="695" type="line"/>
      <point x="512" y="665" type="line"/>
    </contour>
    <contour>
      <point x="390" y="0" type="line"/>
      <point x="390" y="35" type="line"/>
      <point x="425" y="5" type="line"/>
      <point x="424" y="0" type="line"/>
    </contour>
    <contour>
      <point x="303" y="0" type="line"/>
      <point x="269" y="0" type="line"/>
      <point x="268" y="5" type="line"/>
      <point x="303" y="35" type="line"/>
    </contour>
    <contour>
      <point x="180" y="0" type="line"/>
      <point x="180" y="35" type="line"/>
      <point x="215" y="5" type="line"/>
      <point x="214" y="0" type="line"/>
    </contour>
    <contour>
      <point x="93" y="0" type="line"/>
      <point x="59" y="0" type="line"/>
      <point x="58" y="5" type="line"/>
      <point x="93" y="35" type="line"/>
    </contour>
    <contour>
      <point x="60" y="440" type="line"/>
      <point x="60" y="525" type="line"/>
      <point x="575" y="525" type="line"/>
      <point x="575" y="440" type="line"/>
    </contour>
    <contour>
      <point x="30" y="180" type="line"/>
      <point x="30" y="265" type="line"/>
      <point x="545" y="265" type="line"/>
      <point x="545" y="180" type="line"/>
    </contour>
    <contour>
      <point x="425" y="700" type="line"/>
      <point x="520" y="700" type="line"/>
      <point x="390" y="0" type="line"/>
      <point x="295" y="0" type="line"/>
    </contour>
    <contour>
      <point x="215" y="700" type="line"/>
      <point x="310" y="700" type="line"/>
      <point x="180" y="0" type="line"/>
      <point x="85" y="0" type="line"/>
    </contour>
  </outline>
</glyph>
<glyph name="dollar" format="2">
  <advance width="657"/>
  <unicode hex="0024"/>
  <anchor x="325" y="800" name="top"/>
  <anchor x="345" y="-61" name="bottom"/>
  <anchor x="345" y="-60" name="cedilla"/>
  <outline>
    <contour>
      <point x="285" y="740" type="line"/>
      <point x="355" y="740" type="line"/>
      <point x="355" y="-80" type="line"/>
      <point x="285" y="-80" type="line"/>
    </contour>
    <contour>
      <point x="137" y="49" type="line"/>
      <point x="87" y="14" type="line"/>
      <point x="82" y="15" type="line"/>
      <point x="32" y="237" type="line"/>
      <point x="39" y="240" type="line"/>
    </contour>
    <contour>
      <point x="504" y="650" type="line"/>
      <point x="546" y="695" type="line"/>
      <point x="551" y="694" type="line"/>
      <point x="606" y="472" type="line"/>
      <point x="599" y="469" type="line"/>
    </contour>
    <contour>
      <point x="39" y="240" type="line"/>
      <point x="109" y="156"/>
      <point x="237" y="80"/>
      <point x="351" y="80" type="curve" smooth="yes"/>
      <point x="466" y="80"/>
      <point x="519" y="121"/>
      <point x="519" y="188" type="curve" smooth="yes"/>
      <point x="519" y="248"/>
      <point x="473.881" y="281.774"/>
      <point x="344" y="295" type="curve" smooth="yes"/>
      <point x="150.235" y="314.732"/>
      <point x="50" y="370"/>
      <point x="50" y="502" type="curve" smooth="yes"/>
      <point x="50" y="626"/>
      <point x="156" y="707"/>
      <point x="315" y="707" type="curve" smooth="yes"/>
      <point x="408" y="707"/>
      <point x="493" y="672"/>
      <point x="538" y="638" type="curve"/>
      <point x="599" y="469" type="line"/>
      <point x="524" y="552"/>
      <point x="412" y="611"/>
      <point x="298" y="611" type="curve" smooth="yes"/>
      <point x="233" y="611"/>
      <point x="162" y="572"/>
      <point x="162" y="513" type="curve" smooth="yes"/>
      <point x="162" y="449"/>
      <point x="233.081" y="416.037"/>
      <point x="373" y="403" type="curve" smooth="yes"/>
      <point x="556.814" y="385.873"/>
      <point x="632" y="316"/>
      <point x="632" y="194" type="curve" smooth="yes"/>
      <point x="632" y="66"/>
      <point x="526" y="-20"/>
      <point x="355" y="-20" type="curve" smooth="yes"/>
      <point x="201" y="-20"/>
      <point x="146" y="32"/>
      <point x="91" y="87" type="curve"/>
    </contour>
  </outline>
</glyph>
<glyph name="percent" format="2">
  <advance width="921"/>
  <unicode hex="0025"/>
  <outline>
    <contour>
      <point x="238" y="0" type="line"/>
      <point x="248" y="35" type="line"/>
      <point x="283" y="5" type="line"/>
      <point x="282" y="0" type="line"/>
    </contour>
    <contour>
      <point x="155" y="0" type="line"/>
      <point x="101" y="0" type="line"/>
      <point x="100" y="5" type="line"/>
      <point x="165" y="42" type="line"/>
    </contour>
    <contour>
      <point x="683" y="700" type="line"/>
      <point x="673" y="665" type="line"/>
      <point x="638" y="695" type="line"/>
      <point x="639" y="700" type="line"/>
    </contour>
    <contour>
      <point x="766" y="700" type="line"/>
      <point x="820" y="700" type="line"/>
      <point x="821" y="695" type="line"/>
      <point x="756" y="658" type="line"/>
    </contour>
    <contour>
      <point x="520" y="170" type="curve" smooth="yes"/>
      <point x="520" y="264"/>
      <point x="583" y="350"/>
      <point x="698" y="350" type="curve" smooth="yes"/>
      <point x="813" y="350"/>
      <point x="876" y="264"/>
      <point x="876" y="170" type="curve" smooth="yes"/>
      <point x="876" y="76"/>
      <point x="813" y="-10"/>
      <point x="698" y="-10" type="curve" smooth="yes"/>
      <point x="583" y="-10"/>
      <point x="520" y="76"/>
    </contour>
    <contour>
      <point x="611" y="170" type="curve" smooth="yes"/>
      <point x="611" y="119"/>
      <point x="643" y="75"/>
      <point x="698" y="75" type="curve" smooth="yes"/>
      <point x="753" y="75"/>
      <point x="785" y="119"/>
      <point x="785" y="170" type="curve" smooth="yes"/>
      <point x="785" y="221"/>
      <point x="753" y="265"/>
      <point x="698" y="265" type="curve" smooth="yes"/>
      <point x="643" y="265"/>
      <point x="611" y="221"/>
    </contour>
    <contour>
      <point x="45" y="530" type="curve" smooth="yes"/>
      <point x="45" y="624"/>
      <point x="108" y="710"/>
      <point x="223" y="710" type="curve" smooth="yes"/>
      <point x="338" y="710"/>
      <point x="401" y="624"/>
      <point x="401" y="530" type="curve" smooth="yes"/>
      <point x="401" y="436"/>
      <point x="338" y="350"/>
      <point x="223" y="350" type="curve" smooth="yes"/>
      <point x="108" y="350"/>
      <point x="45" y="436"/>
    </contour>
    <contour>
      <point x="136" y="530" type="curve" smooth="yes"/>
      <point x="136" y="479"/>
      <point x="168" y="435"/>
      <point x="223" y="435" type="curve" smooth="yes"/>
      <point x="278" y="435"/>
      <point x="310" y="479"/>
      <point x="310" y="530" type="curve" smooth="yes"/>
      <point x="310" y="581"/>
      <point x="278" y="625"/>
      <point x="223" y="625" type="curve" smooth="yes"/>
      <point x="168" y="625"/>
      <point x="136" y="581"/>
    </contour>
    <contour>
      <point x="683" y="700" type="line"/>
      <point x="798" y="700" type="line"/>
      <point x="238" y="0" type="line"/>
      <point x="123" y="0" type="line"/>
    </contour>
  </outline>
</glyph>
<glyph name="ampersand" format="2">
  <advance width="799"/>
  <unicode hex="0026"/>
  <outline>
    <contour>
      <point x="298" y="304" type="curve" smooth="yes"/>
      <point x="187" y="464"/>
      <point x="167" y="504"/>
      <point x="167" y="571" type="curve" smooth="yes"/>
      <point x="167" y="635"/>
      <point x="219" y="711"/>
      <point x="334" y="711" type="curve" smooth="yes"/>
      <point x="440" y="711"/>
      <point x="496" y="638"/>
      <point x="496" y="564" type="curve" smooth="yes"/>
      <point x="496" y="497"/>
      <point x="453" y="431"/>
      <point x="339" y="368" type="curve" smooth="yes"/>
      <point x="183" y="283"/>
      <point x="143" y="229"/>
      <point x="143" y="179" type="curve" smooth="yes"/>
      <point x="143" y="108"/>
      <point x="195" y="75"/>
      <point x="255" y="75" type="curve" smooth="yes"/>
      <point x="404" y="75"/>
      <point x="577" y="228"/>
      <point x="587" y="393" type="curve" smooth="yes"/>
      <point x="587" y="401"/>
      <point x="587" y="408"/>
      <point x="586" y="416" type="curve"/>
      <point x="589" y="418" type="line"/>
      <point x="676" y="315" type="line"/>
      <point x="610" y="155"/>
      <point x="464" y="-15"/>
      <point x="255" y="-15" type="curve" smooth="yes"/>
      <point x="129" y="-15"/>
      <point x="40" y="61"/>
      <point x="40" y="170" type="curve" smooth="yes"/>
      <point x="40" y="307"/>
      <point x="176" y="377"/>
      <point x="284" y="435" type="curve" smooth="yes"/>
      <point x="360" y="476"/>
      <point x="398" y="515"/>
      <point x="398" y="566" type="curve" smooth="yes"/>
      <point x="398" y="596"/>
      <point x="373" y="621"/>
      <point x="333" y="621" type="curve" smooth="yes"/>
      <point x="286" y="621"/>
      <point x="265" y="593"/>
      <point x="265" y="563" type="curve" smooth="yes"/>
      <point x="265" y="527"/>
      <point x="292" y="474"/>
      <point x="370" y="360" type="curve" smooth="yes"/>
      <point x="497" y="176"/>
      <point x="557" y="84"/>
      <point x="695" y="84" type="curve" smooth="yes"/>
      <point x="712" y="84"/>
      <point x="727" y="89"/>
      <point x="741" y="100" type="curve"/>
      <point x="745" y="98" type="line"/>
      <point x="689" y="-11" type="line"/>
      <point x="528" y="-10"/>
      <point x="439" y="101"/>
    </contour>
  </outline>
</glyph>
<glyph name="quotesingle" format="2">
  <advance width="255"/>
  <unicode hex="0027"/>
  <outline>
    <contour>
      <point x="70" y="705" type="line"/>
      <point x="71" y="710" type="line"/>
      <point x="184" y="710" type="line"/>
      <point x="185" y="705" type="line"/>
    </contour>
    <contour>
      <point x="70" y="705" type="line"/>
      <point x="185" y="705" type="line"/>
      <point x="160" y="460" type="line"/>
      <point x="95" y="460" type="line"/>
    </contour>
  </outline>
</glyph>
<glyph name="parenright" format="2">
  <advance width="325"/>
  <unicode hex="0029"/>
  <outline>
    <contour>
      <point x="120" y="-200" type="curve"/>
      <point x="20" y="-200" type="line"/>
      <point x="100" y="-50"/>
      <point x="150" y="100"/>
      <point x="150" y="290" type="curve" smooth="yes"/>
      <point x="150" y="480"/>
      <point x="100" y="630"/>
      <point x="20" y="780" type="curve"/>
      <point x="120" y="780" type="line"/>
      <point x="210" y="630"/>
      <point x="265" y="500"/>
      <point x="265" y="290" type="curve" smooth="yes"/>
      <point x="265" y="80"/>
      <point x="210" y="-50"/>
    </contour>
  </outline>
</glyph>
<glyph name="asterisk" format="2">
  <advance width="483"/>
  <unicode hex="002A"/>
  <outline>
    <contour>
      <point x="406" y="619" type="line"/>
      <point x="441" y="514" type="line"/>
      <point x="247" y="483" type="line"/>
      <point x="232" y="531" type="line"/>
    </contour>
    <contour>
      <point x="397" y="395" type="line"/>
      <point x="308" y="329" type="line"/>
      <point x="219" y="504" type="line"/>
      <point x="260" y="533" type="line"/>
    </contour>
    <contour>
      <point x="182" y="326" type="line"/>
      <point x="92" y="391" type="line"/>
      <point x="230" y="530" type="line"/>
      <point x="271" y="500" type="line"/>
    </contour>
    <contour>
      <point x="43" y="513" type="line"/>
      <point x="77" y="618" type="line"/>
      <point x="252" y="529" type="line"/>
      <point x="236" y="481" type="line"/>
    </contour>
    <contour>
      <point x="189" y="700" type="line"/>
      <point x="299" y="700" type="line"/>
      <point x="269" y="505" type="line"/>
      <point x="219" y="505" type="line"/>
    </contour>
  </outline>
</glyph>
<glyph name="plus" format="2">
  <advance width="675"/>
  <unicode hex="002B"/>
  <outline>
    <contour>
      <point x="90" y="210" type="line"/>
      <point x="90" y="300" type="line"/>
      <point x="585" y="300" type="line"/>
      <point x="585" y="210" type="line"/>
    </contour>
    <contour>
      <point x="285" y="500" type="line"/>
      <point x="385" y="500" type="line"/>
      <point x="385" y="10" type="line"/>
      <point x="285" y="10" type="line"/>
    </contour>
  </outline>
</glyph>
<glyph name="comma" format="2">
  <advance width="275"/>
  <unicode hex="002C"/>
  <outline>
    <contour>
      <point x="90" y="0" type="line"/>
      <point x="90" y="145" type="line"/>
      <point x="185" y="145" type="line"/>
      <point x="185" y="14" type="line"/>
      <point x="135" y="-70" type="line"/>
      <point x="100" y="-70" type="line"/>
      <point x="135" y="0" type="line"/>
    </contour>
  </outline>
</glyph>
<glyph name="hyphen" format="2">
  <advance width="280"/>
  <unicode hex="002D"/>
  <outline>
    <contour>
      <point x="20" y="225" type="line"/>
      <point x="20" y="325" type="line"/>
      <point x="260" y="325" type="line"/>
      <point x="260" y="225" type="line"/>
    </contour>
  </outline>
</glyph>
<glyph name="zero" format="2">
  <advance width="740"/>
  <unicode hex="0030"/>
  <anchor x="370" y="0" name="bottom"/>
  <anchor x="370" y="700" name="top"/>
  <outline>
    <contour>
      <point x="160" y="350" type="curve" smooth="yes"/>
      <point x="160" y="186"/>
      <point x="257" y="90"/>
      <point x="370" y="90" type="curve" smooth="yes"/>
      <point x="483" y="90"/>
      <point x="580" y="186"/>
      <point x="580" y="350" type="curve" smooth="yes"/>
      <point x="580" y="514"/>
      <point x="483" y="610"/>
      <point x="370" y="610" type="curve" smooth="yes"/>
      <point x="257" y="610"/>
      <point x="160" y="514"/>
    </contour>
    <contour>
      <point x="45" y="350" type="curve" smooth="yes"/>
      <point x="45" y="574"/>
      <point x="201" y="710"/>
      <point x="370" y="710" type="curve" smooth="yes"/>
      <point x="539" y="710"/>
      <point x="695" y="574"/>
      <point x="695" y="350" type="curve" smooth="yes"/>
      <point x="695" y="126"/>
      <point x="539" y="-10"/>
      <point x="370" y="-10" type="curve" smooth="yes"/>
      <point x="201" y="-10"/>
      <point x="45" y="126"/>
    </contour>
  </outline>
</glyph>
<glyph name="one" format="2">
  <advance width="510"/>
  <unicode hex="0031"/>
  <outline>
    <contour>
      <point x="100" y="446" type="curve"/>
      <point x="100" y="550" type="line"/>
      <point x="160" y="570"/>
      <point x="225" y="630"/>
      <point x="255" y="700" type="curve"/>
      <point x="257" y="580" type="line"/>
      <point x="233" y="520"/>
      <point x="160" y="473"/>
    </contour>
    <contour>
      <point x="355" y="700" type="line"/>
      <point x="389" y="700" type="line"/>
      <point x="390" y="695" type="line"/>
      <point x="355" y="665" type="line"/>
    </contour>
    <contour>
      <point x="355" y="0" type="line"/>
      <point x="355" y="35" type="line"/>
      <point x="390" y="5" type="line"/>
      <point x="389" y="0" type="line"/>
    </contour>
    <contour>
      <point x="240" y="0" type="line"/>
      <point x="206" y="0" type="line"/>
      <point x="205" y="5" type="line"/>
      <point x="240" y="35" type="line"/>
    </contour>
    <contour>
      <point x="240" y="630" type="line"/>
      <point x="255" y="700" type="line"/>
      <point x="355" y="700" type="line"/>
      <point x="355" y="0" type="line"/>
      <point x="240" y="0" type="line"/>
    </contour>
  </outline>
</glyph>
<glyph name="two" format="2">
  <advance width="648"/>
  <unicode hex="0032"/>
  <outline>
    <contour>
      <point x="38" y="0" type="line"/>
      <point x="120" y="100" type="line"/>
      <point x="549" y="100" type="line"/>
      <point x="554" y="0" type="line"/>
    </contour>
    <contour>
      <point x="609" y="173" type="line"/>
      <point x="613" y="171" type="line"/>
      <point x="554" y="0" type="line"/>
      <point x="549" y="100" type="line"/>
    </contour>
    <contour>
      <point x="38" y="0" type="line"/>
      <point x="38" y="180"/>
      <point x="215.315" y="265.345"/>
      <point x="340" y="335" type="curve" smooth="yes"/>
      <point x="435.864" y="388.555"/>
      <point x="500" y="433"/>
      <point x="500" y="506" type="curve" smooth="yes"/>
      <point x="500" y="572"/>
      <point x="439" y="611"/>
      <point x="336" y="611" type="curve" smooth="yes"/>
      <point x="223" y="611"/>
      <point x="140" y="554"/>
      <point x="115" y="446" type="curve"/>
      <point x="111" y="444" type="line"/>
      <point x="35" y="538" type="line"/>
      <point x="87" y="640"/>
      <point x="209" y="711"/>
      <point x="336" y="711" type="curve" smooth="yes"/>
      <point x="513" y="711"/>
      <point x="608" y="619"/>
      <point x="608" y="511" type="curve" smooth="yes"/>
      <point x="608" y="369"/>
      <point x="504.068" y="314.011"/>
      <point x="388" y="249" type="curve" smooth="yes"/>
      <point x="282.196" y="189.738"/>
      <point x="197" y="154"/>
      <point x="177" y="90" type="curve"/>
    </contour>
  </outline>
</glyph>
<glyph name="three" format="2">
  <advance width="708"/>
  <unicode hex="0033"/>
  <outline>
    <contour>
      <point x="321" y="415" type="line"/>
      <point x="419" y="400" type="line"/>
      <point x="287" y="298" type="line"/>
      <point x="282" y="303" type="line"/>
    </contour>
    <contour>
      <point x="321" y="352" type="curve"/>
      <point x="321" y="415" type="line"/>
      <point x="442" y="415"/>
      <point x="516" y="456"/>
      <point x="516" y="520" type="curve" smooth="yes"/>
      <point x="516" y="582"/>
      <point x="451" y="616"/>
      <point x="361" y="616" type="curve" smooth="yes"/>
      <point x="266" y="616"/>
      <point x="165" y="574"/>
      <point x="137" y="470" type="curve"/>
      <point x="133" y="468" type="line"/>
      <point x="56" y="562" type="line"/>
      <point x="125" y="670"/>
      <point x="240" y="710"/>
      <point x="355" y="710" type="curve" smooth="yes"/>
      <point x="525" y="710"/>
      <point x="628" y="628"/>
      <point x="628" y="526" type="curve" smooth="yes"/>
      <point x="628" y="417"/>
      <point x="506" y="352"/>
    </contour>
    <contour>
      <point x="369" y="-10" type="curve" smooth="yes"/>
      <point x="184" y="-10"/>
      <point x="93" y="73"/>
      <point x="45" y="165" type="curve"/>
      <point x="140" y="239" type="line"/>
      <point x="144" y="237" type="line"/>
      <point x="146" y="163"/>
      <point x="238" y="88"/>
      <point x="358" y="88" type="curve" smooth="yes"/>
      <point x="488" y="88"/>
      <point x="554" y="139"/>
      <point x="554" y="215" type="curve" smooth="yes"/>
      <point x="554" y="297"/>
      <point x="482" y="332"/>
      <point x="401" y="332" type="curve" smooth="yes"/>
      <point x="347.988" y="332"/>
      <point x="313.301" y="317.346"/>
      <point x="287" y="298" type="curve"/>
      <point x="321" y="400" type="line"/>
      <point x="546" y="400"/>
      <point x="663" y="355"/>
      <point x="663" y="206" type="curve" smooth="yes"/>
      <point x="663" y="69"/>
      <point x="534" y="-10"/>
    </contour>
  </outline>
</glyph>
<glyph name="four" format="2">
  <advance width="723"/>
  <unicode hex="0034"/>
  <outline>
    <contour>
      <point x="523" y="700" type="line"/>
      <point x="557" y="700" type="line"/>
      <point x="558" y="695" type="line"/>
      <point x="523" y="665" type="line"/>
    </contour>
    <contour>
      <point x="523" y="0" type="line"/>
      <point x="523" y="35" type="line"/>
      <point x="558" y="5" type="line"/>
      <point x="557" y="0" type="line"/>
    </contour>
    <contour>
      <point x="413" y="0" type="line"/>
      <point x="379" y="0" type="line"/>
      <point x="378" y="5" type="line"/>
      <point x="413" y="35" type="line"/>
    </contour>
    <contour>
      <point x="30" y="190" type="line"/>
      <point x="30" y="295" type="line"/>
      <point x="388" y="700" type="line"/>
      <point x="523" y="700" type="line"/>
      <point x="523" y="0" type="line"/>
      <point x="413" y="0" type="line"/>
      <point x="413" y="231" type="line"/>
      <point x="413" y="242" type="line"/>
      <point x="413" y="595" type="line"/>
      <point x="137" y="280" type="line"/>
      <point x="498" y="280" type="line"/>
      <point x="515" y="280" type="line"/>
      <point x="683" y="280" type="line"/>
      <point x="683" y="190" type="line"/>
    </contour>
  </outline>
</glyph>
<glyph name="five" format="2">
  <advance width="724"/>
  <unicode hex="0035"/>
  <outline>
    <contour>
      <point x="646" y="531" type="line"/>
      <point x="583" y="600" type="line"/>
      <point x="605" y="700" type="line"/>
      <point x="651" y="534" type="line"/>
    </contour>
    <contour>
      <point x="674" y="240" type="curve" smooth="yes"/>
      <point x="674" y="66"/>
      <point x="533" y="-10"/>
      <point x="358" y="-10" type="curve" smooth="yes"/>
      <point x="179" y="-10"/>
      <point x="76" y="75"/>
      <point x="50" y="147" type="curve"/>
      <point x="162" y="205" type="line"/>
      <point x="165" y="203" type="line"/>
      <point x="167" y="136"/>
      <point x="234" y="90"/>
      <point x="368" y="90" type="curve" smooth="yes"/>
      <point x="478" y="90"/>
      <point x="561" y="144"/>
      <point x="561" y="240" type="curve" smooth="yes"/>
      <point x="561" y="336"/>
      <point x="474" y="386"/>
      <point x="364" y="386" type="curve" smooth="yes"/>
      <point x="277" y="386"/>
      <point x="198" y="347"/>
      <point x="157" y="280" type="curve"/>
      <point x="57" y="281" type="line"/>
      <point x="99" y="700" type="line"/>
      <point x="605" y="700" type="line"/>
      <point x="621" y="600" type="line"/>
      <point x="187" y="600" type="line"/>
      <point x="163" y="400" type="line"/>
      <point x="198" y="447"/>
      <point x="279" y="486"/>
      <point x="394" y="486" type="curve" smooth="yes"/>
      <point x="554" y="486"/>
      <point x="674" y="389"/>
    </contour>
  </outline>
</glyph>
<glyph name="six" format="2">
  <advance width="694"/>
  <unicode hex="0036"/>
  <outline>
    <contour>
      <point x="376" y="612" type="curve"/>
      <point x="384" y="710" type="line"/>
      <point x="524" y="710"/>
      <point x="612" y="642"/>
      <point x="657" y="583" type="curve"/>
      <point x="555" y="507" type="line"/>
      <point x="552" y="509" type="line"/>
      <point x="550" y="555"/>
      <point x="486" y="612"/>
    </contour>
    <contour>
      <point x="549" y="240" type="curve" smooth="yes"/>
      <point x="549" y="323"/>
      <point x="457" y="370"/>
      <point x="368" y="370" type="curve" smooth="yes"/>
      <point x="265" y="370"/>
      <point x="169" y="321"/>
      <point x="169" y="231" type="curve"/>
      <point x="118" y="280" type="line"/>
      <point x="118" y="407"/>
      <point x="254" y="470"/>
      <point x="385" y="470" type="curve" smooth="yes"/>
      <point x="526" y="470"/>
      <point x="659" y="383"/>
      <point x="659" y="230" type="curve" smooth="yes"/>
      <point x="659" y="90"/>
      <point x="544" y="-10"/>
      <point x="373" y="-10" type="curve" smooth="yes"/>
      <point x="182" y="-10"/>
      <point x="35" y="100"/>
      <point x="35" y="340" type="curve" smooth="yes"/>
      <point x="35" y="563"/>
      <point x="162" y="710"/>
      <point x="384" y="710" type="curve"/>
      <point x="376" y="612" type="line"/>
      <point x="243" y="612"/>
      <point x="138" y="522"/>
      <point x="138" y="350" type="curve"/>
      <point x="169" y="231" type="line"/>
      <point x="169" y="137"/>
      <point x="264" y="90"/>
      <point x="373" y="90" type="curve" smooth="yes"/>
      <point x="472" y="90"/>
      <point x="549" y="146"/>
    </contour>
  </outline>
</glyph>
<glyph name="seven" format="2">
  <advance width="660"/>
  <unicode hex="0037"/>
  <outline>
    <contour>
      <point x="253" y="0" type="line"/>
      <point x="219" y="0" type="line"/>
      <point x="218" y="5" type="line"/>
      <point x="259" y="40" type="line"/>
    </contour>
    <contour>
      <point x="363" y="0" type="line"/>
      <point x="363" y="35" type="line"/>
      <point x="398" y="5" type="line"/>
      <point x="397" y="0" type="line"/>
    </contour>
    <contour>
      <point x="35" y="531" type="line"/>
      <point x="30" y="534" type="line"/>
      <point x="76" y="700" type="line"/>
      <point x="98" y="600" type="line"/>
    </contour>
    <contour>
      <point x="91" y="600" type="line"/>
      <point x="76" y="700" type="line"/>
      <point x="630" y="700" type="line"/>
      <point x="630" y="611" type="line"/>
      <point x="530.365" y="516.4"/>
      <point x="363" y="240"/>
      <point x="363" y="0" type="curve"/>
      <point x="253" y="0" type="line"/>
      <point x="253" y="250"/>
      <point x="410" y="500"/>
      <point x="500" y="600" type="curve"/>
    </contour>
  </outline>
</glyph>
<glyph name="eight" format="2">
  <advance width="726"/>
  <unicode hex="0038"/>
  <outline>
    <contour>
      <point x="70" y="524" type="curve" smooth="yes"/>
      <point x="70" y="633"/>
      <point x="183" y="710"/>
      <point x="363" y="710" type="curve" smooth="yes"/>
      <point x="543" y="710"/>
      <point x="656" y="633"/>
      <point x="656" y="524" type="curve" smooth="yes"/>
      <point x="656" y="405"/>
      <point x="548" y="350"/>
      <point x="363" y="350" type="curve" smooth="yes"/>
      <point x="178" y="350"/>
      <point x="70" y="405"/>
    </contour>
    <contour>
      <point x="176" y="521" type="curve" smooth="yes"/>
      <point x="176" y="460"/>
      <point x="253" y="415"/>
      <point x="363" y="415" type="curve" smooth="yes"/>
      <point x="473" y="415"/>
      <point x="550" y="460"/>
      <point x="550" y="521" type="curve" smooth="yes"/>
      <point x="550" y="582"/>
      <point x="478" y="615"/>
      <point x="363" y="615" type="curve" smooth="yes"/>
      <point x="248" y="615"/>
      <point x="176" y="582"/>
    </contour>
    <contour>
      <point x="45" y="195" type="curve" smooth="yes"/>
      <point x="45" y="324"/>
      <point x="178" y="395"/>
      <point x="363" y="395" type="curve" smooth="yes"/>
      <point x="548" y="395"/>
      <point x="681" y="324"/>
      <point x="681" y="195" type="curve" smooth="yes"/>
      <point x="681" y="76"/>
      <point x="558" y="-10"/>
      <point x="363" y="-10" type="curve" smooth="yes"/>
      <point x="168" y="-10"/>
      <point x="45" y="76"/>
    </contour>
    <contour>
      <point x="161" y="205" type="curve" smooth="yes"/>
      <point x="161" y="129"/>
      <point x="233" y="85"/>
      <point x="363" y="85" type="curve" smooth="yes"/>
      <point x="493" y="85"/>
      <point x="565" y="129"/>
      <point x="565" y="205" type="curve" smooth="yes"/>
      <point x="565" y="271"/>
      <point x="503" y="330"/>
      <point x="363" y="330" type="curve" smooth="yes"/>
      <point x="223" y="330"/>
      <point x="161" y="271"/>
    </contour>
  </outline>
</glyph>
<glyph name="less" format="2">
  <advance width="640"/>
  <unicode hex="003C"/>
  <outline>
    <contour>
      <point x="217" y="262" type="line"/>
      <point x="575" y="105" type="line"/>
      <point x="575" y="5" type="line"/>
      <point x="65" y="225" type="line"/>
      <point x="65" y="290" type="line"/>
      <point x="575" y="510" type="line"/>
      <point x="575" y="410" type="line"/>
    </contour>
  </outline>
</glyph>
<glyph name="greater" format="2">
  <advance width="640"/>
  <unicode hex="003E"/>
  <outline>
    <contour>
      <point x="423" y="253" type="line"/>
      <point x="65" y="410" type="line"/>
      <point x="65" y="510" type="line"/>
      <point x="575" y="290" type="line"/>
      <point x="575" y="225" type="line"/>
      <point x="65" y="5" type="line"/>
      <point x="65" y="105" type="line"/>
    </contour>
  </outline>
</glyph>
<glyph name="question" format="2">
  <advance width="557"/>
  <unicode hex="003F"/>
  <outline>
    <contour>
      <point x="210" y="0" type="line"/>
      <point x="210" y="145" type="line"/>
      <point x="305" y="145" type="line"/>
      <point x="305" y="0" type="line"/>
    </contour>
    <contour>
      <point x="377" y="519" type="curve" smooth="yes"/>
      <point x="377" y="578"/>
      <point x="329" y="622"/>
      <point x="276" y="622" type="curve" smooth="yes"/>
      <point x="212.742" y="622"/>
      <point x="159.615" y="577.055"/>
      <point x="159.615" y="524.727" type="curve" smooth="yes"/>
      <point x="159.615" y="501.007"/>
      <point x="166.062" y="488.057"/>
      <point x="172" y="478" type="curve"/>
      <point x="168" y="474" type="line"/>
      <point x="74" y="553" type="line"/>
      <point x="100" y="633"/>
      <point x="170" y="710"/>
      <point x="279" y="710" type="curve" smooth="yes"/>
      <point x="394" y="710"/>
      <point x="477" y="620"/>
      <point x="477" y="521" type="curve" smooth="yes"/>
      <point x="477" y="412"/>
      <point x="375" y="347"/>
      <point x="295" y="305" type="curve"/>
      <point x="295" y="185" type="line"/>
      <point x="220" y="185" type="line"/>
      <point x="220" y="367" type="line"/>
      <point x="300" y="417"/>
      <point x="377" y="459"/>
    </contour>
  </outline>
</glyph>
<glyph name="at" format="2">
  <advance width="770"/>
  <unicode hex="0040"/>
  <outline>
    <contour>
      <point x="366.161" y="83.2969" type="line"/>
      <point x="433.828" y="83.2969"/>
      <point x="489.352" y="101.498"/>
      <point x="532.485" y="131.858" type="curve"/>
      <point x="538.85" y="128.323" type="line"/>
      <point x="478.745" y="-5.32031" type="line"/>
      <point x="460.684" y="-8.12305"/>
      <point x="409.022" y="-10"/>
      <point x="385" y="-10" type="curve"/>
    </contour>
    <contour>
      <point x="565" y="520" type="line"/>
      <point x="599" y="520" type="line"/>
      <point x="600" y="515" type="line"/>
      <point x="553" y="475" type="line"/>
    </contour>
    <contour>
      <point x="276" y="330" type="curve" smooth="yes"/>
      <point x="276" y="281"/>
      <point x="305" y="250"/>
      <point x="348" y="250" type="curve" smooth="yes"/>
      <point x="398" y="250"/>
      <point x="445" y="304"/>
      <point x="445" y="360" type="curve" smooth="yes"/>
      <point x="445" y="401"/>
      <point x="418" y="440"/>
      <point x="378" y="440" type="curve" smooth="yes"/>
      <point x="324" y="440"/>
      <point x="276" y="396"/>
    </contour>
    <contour>
      <point x="180" y="312" type="curve" smooth="yes"/>
      <point x="180" y="461"/>
      <point x="286" y="530"/>
      <point x="371" y="530" type="curve" smooth="yes"/>
      <point x="456" y="530"/>
      <point x="501" y="439"/>
      <point x="501" y="360" type="curve" smooth="yes"/>
      <point x="501" y="241"/>
      <point x="423" y="160"/>
      <point x="328" y="160" type="curve" smooth="yes"/>
      <point x="255" y="160"/>
      <point x="180" y="213"/>
    </contour>
    <contour>
      <point x="5" y="320" type="curve" smooth="yes"/>
      <point x="5" y="539"/>
      <point x="181" y="710"/>
      <point x="415" y="710" type="curve" smooth="yes"/>
      <point x="649" y="710"/>
      <point x="765" y="549"/>
      <point x="765" y="390" type="curve" smooth="yes"/>
      <point x="765" y="204"/>
      <point x="641" y="155"/>
      <point x="566" y="155" type="curve" smooth="yes"/>
      <point x="505" y="155"/>
      <point x="456" y="204"/>
      <point x="456" y="270" type="curve"/>
      <point x="439" y="270" type="line"/>
      <point x="475" y="520" type="line"/>
      <point x="565" y="520" type="line"/>
      <point x="534" y="309" type="line" smooth="yes"/>
      <point x="533" y="302"/>
      <point x="532" y="290"/>
      <point x="532" y="282" type="curve" smooth="yes"/>
      <point x="532" y="258"/>
      <point x="548" y="236"/>
      <point x="581" y="236" type="curve" smooth="yes"/>
      <point x="611" y="236"/>
      <point x="675" y="264"/>
      <point x="675" y="390" type="curve" smooth="yes"/>
      <point x="675" y="523"/>
      <point x="593" y="625"/>
      <point x="415" y="625" type="curve" smooth="yes"/>
      <point x="227" y="625"/>
      <point x="95" y="498"/>
      <point x="95" y="320" type="curve" smooth="yes"/>
      <point x="95" y="177"/>
      <point x="188.161" y="83.2969"/>
      <point x="366.161" y="83.2969" type="curve"/>
      <point x="385" y="-10" type="line"/>
      <point x="131" y="-10"/>
      <point x="5" y="121"/>
    </contour>
  </outline>
</glyph>
<glyph name="A" format="2">
  <advance width="704"/>
  <unicode hex="0041"/>
  <anchor x="615" y="0" name="cedilla"/>
  <anchor x="352" y="0" name="bottom"/>
  <anchor x="350" y="700" name="top"/>
  <outline>
    <contour>
      <point x="577" y="0" type="line"/>
      <point x="533" y="0" type="line"/>
      <point x="532" y="5" type="line"/>
      <point x="567" y="35" type="line"/>
    </contour>
    <contour>
      <point x="127" y="0" type="line"/>
      <point x="137" y="35" type="line"/>
      <point x="172" y="5" type="line"/>
      <point x="171" y="0" type="line"/>
    </contour>
    <contour>
      <point x="659" y="0" type="line"/>
      <point x="649" y="52" type="line"/>
      <point x="704" y="5" type="line"/>
      <point x="703" y="0" type="line"/>
    </contour>
    <contour>
      <point x="45" y="0" type="line"/>
      <point x="1" y="0" type="line"/>
      <point x="0" y="5" type="line"/>
      <point x="55" y="52" type="line"/>
    </contour>
    <contour>
      <point x="280" y="700" type="line"/>
      <point x="270" y="665" type="line"/>
      <point x="235" y="695" type="line"/>
      <point x="236" y="700" type="line"/>
    </contour>
    <contour>
      <point x="424" y="700" type="line"/>
      <point x="468" y="700" type="line"/>
      <point x="469" y="695" type="line"/>
      <point x="434" y="665" type="line"/>
    </contour>
    <contour>
      <point x="119" y="175" type="line"/>
      <point x="149" y="270" type="line"/>
      <point x="559" y="270" type="line"/>
      <point x="589" y="175" type="line"/>
    </contour>
    <contour>
      <point x="352" y="601" type="line"/>
      <point x="137" y="0" type="line"/>
      <point x="25" y="0" type="line"/>
      <point x="280" y="700" type="line"/>
      <point x="424" y="700" type="line"/>
      <point x="679" y="0" type="line"/>
      <point x="567" y="0" type="line"/>
    </contour>
  </outline>
</glyph>
<glyph name="B" format="2">
  <advance width="738"/>
  <unicode hex="0042"/>
  <anchor x="312" y="700" name="top"/>
  <anchor x="308" y="0" name="bottom"/>
  <outline>
    <contour>
      <point x="100" y="0" type="line"/>
      <point x="66" y="0" type="line"/>
      <point x="65" y="5" type="line"/>
      <point x="100" y="35" type="line"/>
    </contour>
    <contour>
      <point x="100" y="700" type="line"/>
      <point x="100" y="665" type="line"/>
      <point x="65" y="695" type="line"/>
      <point x="66" y="700" type="line"/>
    </contour>
    <contour>
      <point x="171" y="351" type="line"/>
      <point x="171" y="425" type="line"/>
      <point x="450" y="425" type="line" smooth="yes"/>
      <point x="515" y="425"/>
      <point x="555" y="455"/>
      <point x="555" y="510" type="curve" smooth="yes"/>
      <point x="555" y="565"/>
      <point x="515" y="595"/>
      <point x="450" y="595" type="curve" smooth="yes"/>
      <point x="204" y="595" type="line"/>
      <point x="204" y="105" type="line"/>
      <point x="455" y="105" type="line" smooth="yes"/>
      <point x="535" y="105"/>
      <point x="583" y="144"/>
      <point x="583" y="220" type="curve" smooth="yes"/>
      <point x="583" y="286"/>
      <point x="533" y="330"/>
      <point x="455" y="330" type="curve" smooth="yes"/>
      <point x="171" y="330" type="line"/>
      <point x="171" y="396" type="line"/>
      <point x="460" y="396" type="line" smooth="yes"/>
      <point x="605" y="396"/>
      <point x="688" y="324"/>
      <point x="688" y="205" type="curve" smooth="yes"/>
      <point x="688" y="86"/>
      <point x="605" y="0"/>
      <point x="460" y="0" type="curve" smooth="yes"/>
      <point x="100" y="0" type="line"/>
      <point x="100" y="700" type="line"/>
      <point x="460" y="700" type="line" smooth="yes"/>
      <point x="585" y="700"/>
      <point x="666" y="635"/>
      <point x="666" y="526" type="curve" smooth="yes"/>
      <point x="666" y="410"/>
      <point x="555" y="351"/>
      <point x="430" y="351" type="curve" smooth="yes"/>
    </contour>
  </outline>
</glyph>
<glyph name="D" format="2">
  <advance width="757"/>
  <unicode hex="0044"/>
  <anchor x="342" y="700" name="top"/>
  <anchor x="311" y="0" name="bottom"/>
  <anchor x="311" y="0" name="cedilla"/>
  <outline>
    <contour>
      <point x="100" y="0" type="line"/>
      <point x="66" y="0" type="line"/>
      <point x="65" y="5" type="line"/>
      <point x="100" y="35" type="line"/>
    </contour>
    <contour>
      <point x="100" y="700" type="line"/>
      <point x="100" y="665" type="line"/>
      <point x="65" y="695" type="line"/>
      <point x="66" y="700" type="line"/>
    </contour>
    <contour>
      <point x="100" y="700" type="line"/>
      <point x="205" y="700" type="line"/>
      <point x="205" y="0" type="line"/>
      <point x="100" y="0" type="line"/>
    </contour>
    <contour>
      <point x="382" y="0" type="curve" smooth="yes"/>
      <point x="147" y="0" type="line"/>
      <point x="147" y="100" type="line"/>
      <point x="372" y="100" type="line" smooth="yes"/>
      <point x="505" y="100"/>
      <point x="587" y="187"/>
      <point x="587" y="350" type="curve" smooth="yes"/>
      <point x="587" y="513"/>
      <point x="505" y="600"/>
      <point x="372" y="600" type="curve" smooth="yes"/>
      <point x="147" y="600" type="line"/>
      <point x="147" y="700" type="line"/>
      <point x="382" y="700" type="line" smooth="yes"/>
      <point x="566" y="700"/>
      <point x="702" y="579"/>
      <point x="702" y="350" type="curve" smooth="yes"/>
      <point x="702" y="121"/>
      <point x="566" y="-2.25335e-14"/>
    </contour>
  </outline>
</glyph>
<glyph name="E" format="2">
  <advance width="705"/>
  <unicode hex="0045"/>
  <anchor x="332" y="700" name="top"/>
  <anchor x="358" y="0" name="bottom"/>
  <anchor x="483" y="0" name="cedilla"/>
  <outline>
    <contour>
      <point x="100" y="0" type="line"/>
      <point x="66" y="0" type="line"/>
      <point x="65" y="5" type="line"/>
      <point x="100" y="35" type="line"/>
    </contour>
    <contour>
      <point x="100" y="700" type="line"/>
      <point x="100" y="665" type="line"/>
      <point x="65" y="695" type="line"/>
      <point x="66" y="700" type="line"/>
    </contour>
    <contour>
      <point x="100" y="700" type="line"/>
      <point x="205" y="700" type="line"/>
      <point x="205" y="0" type="line"/>
      <point x="100" y="0" type="line"/>
    </contour>
    <contour>
      <point x="170" y="317" type="line"/>
      <point x="170" y="413" type="line"/>
      <point x="436" y="413" type="line"/>
      <point x="458" y="317" type="line"/>
    </contour>
    <contour>
      <point x="170" y="600" type="line"/>
      <point x="170" y="700" type="line"/>
      <point x="593" y="700" type="line"/>
      <point x="585" y="600" type="line"/>
    </contour>
    <contour>
      <point x="634" y="531" type="line"/>
      <point x="571" y="600" type="line"/>
      <point x="593" y="700" type="line"/>
      <point x="639" y="534" type="line"/>
    </contour>
    <contour>
      <point x="409" y="408" type="line"/>
      <point x="440" y="461" type="line"/>
      <point x="445" y="461" type="line"/>
      <point x="484.147" y="268" type="line"/>
      <point x="479" y="265" type="line"/>
      <point x="418" y="329" type="line"/>
    </contour>
    <contour>
      <point x="172" y="0" type="line"/>
      <point x="172" y="100" type="line"/>
      <point x="601" y="100" type="line"/>
      <point x="606" y="0" type="line"/>
    </contour>
    <contour>
      <point x="661" y="173" type="line"/>
      <point x="665" y="171" type="line"/>
      <point x="606" y="0" type="line"/>
      <point x="601" y="100" type="line"/>
    </contour>
  </outline>
</glyph>
<glyph name="F" format="2">
  <advance width="639"/>
  <unicode hex="0046"/>
  <anchor x="342" y="700" name="top"/>
  <anchor x="151" y="0" name="bottom"/>
  <outline>
    <contour>
      <point x="100" y="0" type="line"/>
      <point x="66" y="0" type="line"/>
      <point x="65" y="5" type="line"/>
      <point x="100" y="35" type="line"/>
    </contour>
    <contour>
      <point x="203" y="0" type="line"/>
      <point x="203" y="35" type="line"/>
      <point x="238" y="5" type="line"/>
      <point x="237" y="0" type="line"/>
    </contour>
    <contour>
      <point x="100" y="700" type="line"/>
      <point x="100" y="665" type="line"/>
      <point x="65" y="695" type="line"/>
      <point x="66" y="700" type="line"/>
    </contour>
    <contour>
      <point x="100" y="700" type="line"/>
      <point x="205" y="700" type="line"/>
      <point x="205" y="0" type="line"/>
      <point x="100" y="0" type="line"/>
    </contour>
    <contour>
      <point x="170" y="317" type="line"/>
      <point x="170" y="413" type="line"/>
      <point x="436" y="413" type="line"/>
      <point x="458" y="317" type="line"/>
    </contour>
    <contour>
      <point x="170" y="600" type="line"/>
      <point x="170" y="700" type="line"/>
      <point x="568" y="700" type="line"/>
      <point x="560" y="600" type="line"/>
    </contour>
    <contour>
      <point x="609" y="531" type="line"/>
      <point x="546" y="600" type="line"/>
      <point x="568" y="700" type="line"/>
      <point x="614" y="534" type="line"/>
    </contour>
    <contour>
      <point x="409" y="408" type="line"/>
      <point x="440" y="461" type="line"/>
      <point x="445" y="461" type="line"/>
      <point x="484.147" y="268" type="line"/>
      <point x="479" y="265" type="line"/>
      <point x="418" y="329" type="line"/>
    </contour>
  </outline>
</glyph>
<glyph name="G" format="2">
  <advance width="771"/>
  <unicode hex="0047"/>
  <anchor x="410" y="0" name="cedilla"/>
  <anchor x="410" y="0" name="_top"/>
  <anchor x="410" y="0" name="bottom"/>
  <anchor x="420" y="700" name="top"/>
  <outline>
    <contour>
      <point x="686" y="410" type="line"/>
      <point x="720" y="410" type="line"/>
      <point x="721" y="405" type="line"/>
      <point x="686" y="375" type="line"/>
    </contour>
    <contour>
      <point x="581" y="410" type="line"/>
      <point x="581" y="375" type="line"/>
      <point x="546" y="405" type="line"/>
      <point x="547" y="410" type="line"/>
    </contour>
    <contour>
      <point x="581" y="410" type="line"/>
      <point x="686" y="410" type="line"/>
      <point x="686" y="0" type="line"/>
      <point x="681" y="-2" type="line"/>
      <point x="581" y="96" type="line"/>
    </contour>
    <contour>
      <point x="566" y="665" type="line"/>
      <point x="616" y="705" type="line"/>
      <point x="620" y="704" type="line"/>
      <point x="671" y="497" type="line"/>
      <point x="665" y="493" type="line"/>
    </contour>
    <contour>
      <point x="160" y="350" type="curve" smooth="yes"/>
      <point x="160" y="212"/>
      <point x="242" y="95"/>
      <point x="400" y="95" type="curve" smooth="yes"/>
      <point x="519" y="95"/>
      <point x="581" y="164"/>
      <point x="610" y="216" type="curve"/>
      <point x="671" y="123" type="line"/>
      <point x="622" y="66"/>
      <point x="532" y="-10"/>
      <point x="400" y="-10" type="curve" smooth="yes"/>
      <point x="202" y="-10"/>
      <point x="50" y="136"/>
      <point x="50" y="350" type="curve" smooth="yes"/>
      <point x="50" y="564"/>
      <point x="212" y="710"/>
      <point x="400" y="710" type="curve" smooth="yes"/>
      <point x="512" y="710"/>
      <point x="596" y="647"/>
      <point x="625" y="625" type="curve"/>
      <point x="665" y="493" type="line"/>
      <point x="606" y="550"/>
      <point x="519" y="605"/>
      <point x="420" y="605" type="curve" smooth="yes"/>
      <point x="252" y="605"/>
      <point x="160" y="498"/>
    </contour>
  </outline>
</glyph>
<glyph name="H" format="2">
  <advance width="781"/>
  <unicode hex="0048"/>
  <anchor x="392" y="700" name="top"/>
  <anchor x="392" y="0" name="bottom"/>
  <anchor x="152" y="0" name="cedilla"/>
  <outline>
    <contour>
      <point x="681" y="700" type="line"/>
      <point x="715" y="700" type="line"/>
      <point x="716" y="695" type="line"/>
      <point x="681" y="665" type="line"/>
    </contour>
    <contour>
      <point x="681" y="0" type="line"/>
      <point x="681" y="35" type="line"/>
      <point x="716" y="5" type="line"/>
      <point x="715" y="0" type="line"/>
    </contour>
    <contour>
      <point x="210" y="700" type="line"/>
      <point x="244" y="700" type="line"/>
      <point x="245" y="695" type="line"/>
      <point x="210" y="665" type="line"/>
    </contour>
    <contour>
      <point x="210" y="0" type="line"/>
      <point x="210" y="35" type="line"/>
      <point x="245" y="5" type="line"/>
      <point x="244" y="0" type="line"/>
    </contour>
    <contour>
      <point x="571" y="0" type="line"/>
      <point x="537" y="0" type="line"/>
      <point x="536" y="5" type="line"/>
      <point x="571" y="35" type="line"/>
    </contour>
    <contour>
      <point x="571" y="700" type="line"/>
      <point x="571" y="665" type="line"/>
      <point x="536" y="695" type="line"/>
      <point x="537" y="700" type="line"/>
    </contour>
    <contour>
      <point x="100" y="0" type="line"/>
      <point x="66" y="0" type="line"/>
      <point x="65" y="5" type="line"/>
      <point x="100" y="35" type="line"/>
    </contour>
    <contour>
      <point x="100" y="700" type="line"/>
      <point x="100" y="665" type="line"/>
      <point x="65" y="695" type="line"/>
      <point x="66" y="700" type="line"/>
    </contour>
    <contour>
      <point x="175" y="313" type="line"/>
      <point x="175" y="413" type="line"/>
      <point x="591" y="413" type="line"/>
      <point x="593" y="313" type="line"/>
    </contour>
    <contour>
      <point x="571" y="700" type="line"/>
      <point x="681" y="700" type="line"/>
      <point x="681" y="0" type="line"/>
      <point x="571" y="0" type="line"/>
    </contour>
    <contour>
      <point x="100" y="700" type="line"/>
      <point x="210" y="700" type="line"/>
      <point x="210" y="0" type="line"/>
      <point x="100" y="0" type="line"/>
    </contour>
  </outline>
</glyph>
<glyph name="I" format="2">
  <advance width="310"/>
  <unicode hex="0049"/>
  <anchor x="155" y="700" name="top"/>
  <anchor x="155" y="0" name="bottom"/>
  <anchor x="155" y="0" name="cedilla"/>
  <outline>
    <contour>
      <point x="65" y="5" type="line"/>
      <point x="245" y="5" type="line"/>
      <point x="244" y="0" type="line"/>
      <point x="66" y="0" type="line"/>
    </contour>
    <contour>
      <point x="65" y="695" type="line"/>
      <point x="66" y="700" type="line"/>
      <point x="244" y="700" type="line"/>
      <point x="245" y="695" type="line"/>
    </contour>
    <contour>
      <point x="210" y="5" type="line"/>
      <point x="210" y="35" type="line"/>
      <point x="245" y="5" type="line"/>
    </contour>
    <contour>
      <point x="210" y="665" type="line"/>
      <point x="210" y="695" type="line"/>
      <point x="245" y="695" type="line"/>
    </contour>
    <contour>
      <point x="65" y="695" type="line"/>
      <point x="100" y="695" type="line"/>
      <point x="100" y="665" type="line"/>
    </contour>
    <contour>
      <point x="100" y="695" type="line"/>
      <point x="210" y="695" type="line"/>
      <point x="210" y="5" type="line"/>
      <point x="100" y="5" type="line"/>
    </contour>
    <contour>
      <point x="65" y="5" type="line"/>
      <point x="100" y="35" type="line"/>
      <point x="100" y="5" type="line"/>
    </contour>
  </outline>
</glyph>
<glyph name="J" format="2">
  <advance width="502"/>
  <unicode hex="004A"/>
  <anchor x="333" y="700" name="top"/>
  <anchor x="224" y="0" name="bottom"/>
  <outline>
    <contour>
      <point x="407" y="700" type="line"/>
      <point x="441" y="700" type="line"/>
      <point x="442" y="695" type="line"/>
      <point x="407" y="665" type="line"/>
    </contour>
    <contour>
      <point x="297" y="700" type="line"/>
      <point x="297" y="665" type="line"/>
      <point x="262" y="695" type="line"/>
      <point x="263" y="700" type="line"/>
    </contour>
    <contour>
      <point x="1" y="160" type="line"/>
      <point x="153" y="234" type="line"/>
      <point x="156" y="230" type="line"/>
      <point x="47" y="123" type="line"/>
      <point x="0" y="156" type="line"/>
    </contour>
    <contour>
      <point x="156" y="230" type="line"/>
      <point x="142" y="202"/>
      <point x="138" y="186"/>
      <point x="138" y="166" type="curve" smooth="yes"/>
      <point x="138" y="118"/>
      <point x="167" y="81"/>
      <point x="221" y="81" type="curve" smooth="yes"/>
      <point x="271" y="81"/>
      <point x="297" y="111"/>
      <point x="297" y="205" type="curve" smooth="yes"/>
      <point x="297" y="700" type="line"/>
      <point x="407" y="700" type="line"/>
      <point x="407" y="180" type="line" smooth="yes"/>
      <point x="407" y="41"/>
      <point x="338" y="-20"/>
      <point x="224" y="-20" type="curve" smooth="yes"/>
      <point x="111" y="-20"/>
      <point x="41" y="50"/>
      <point x="26" y="160" type="curve"/>
    </contour>
  </outline>
</glyph>
<glyph name="K" format="2">
  <advance width="740"/>
  <unicode hex="004B"/>
  <anchor x="391" y="700" name="top"/>
  <anchor x="385" y="0" name="bottom"/>
  <anchor x="154" y="0" name="cedilla"/>
  <outline>
    <contour>
      <point x="529" y="700" type="line"/>
      <point x="519" y="665" type="line"/>
      <point x="484" y="695" type="line"/>
      <point x="485" y="700" type="line"/>
    </contour>
    <contour>
      <point x="627" y="700" type="line"/>
      <point x="681" y="700" type="line"/>
      <point x="682" y="695" type="line"/>
      <point x="617" y="658" type="line"/>
    </contour>
    <contour>
      <point x="586" y="0" type="line"/>
      <point x="542" y="0" type="line"/>
      <point x="541" y="5" type="line"/>
      <point x="576" y="30" type="line"/>
    </contour>
    <contour>
      <point x="685" y="0" type="line"/>
      <point x="675" y="42" type="line"/>
      <point x="730" y="5" type="line"/>
      <point x="729" y="0" type="line"/>
    </contour>
    <contour>
      <point x="205" y="700" type="line"/>
      <point x="239" y="700" type="line"/>
      <point x="240" y="695" type="line"/>
      <point x="205" y="665" type="line"/>
    </contour>
    <contour>
      <point x="205" y="0" type="line"/>
      <point x="205" y="35" type="line"/>
      <point x="240" y="5" type="line"/>
      <point x="239" y="0" type="line"/>
    </contour>
    <contour>
      <point x="100" y="0" type="line"/>
      <point x="66" y="0" type="line"/>
      <point x="65" y="5" type="line"/>
      <point x="100" y="35" type="line"/>
    </contour>
    <contour>
      <point x="100" y="700" type="line"/>
      <point x="100" y="665" type="line"/>
      <point x="65" y="695" type="line"/>
      <point x="66" y="700" type="line"/>
    </contour>
    <contour>
      <point x="325" y="410" type="line"/>
      <point x="410" y="468" type="line"/>
      <point x="710" y="0" type="line"/>
      <point x="586" y="0" type="line"/>
    </contour>
    <contour>
      <point x="529" y="700" type="line"/>
      <point x="662" y="700" type="line"/>
      <point x="195" y="170" type="line"/>
      <point x="125" y="219" type="line"/>
    </contour>
    <contour>
      <point x="100" y="700" type="line"/>
      <point x="205" y="700" type="line"/>
      <point x="205" y="0" type="line"/>
      <point x="100" y="0" type="line"/>
    </contour>
  </outline>
</glyph>
<glyph name="L" format="2">
  <advance width="670"/>
  <unicode hex="004C"/>
  <anchor x="157" y="700" name="top"/>
  <anchor x="403" y="0" name="bottom"/>
  <anchor x="403" y="0" name="cedilla"/>
  <outline>
    <contour>
      <point x="210" y="700" type="line"/>
      <point x="244" y="700" type="line"/>
      <point x="245" y="695" type="line"/>
      <point x="210" y="665" type="line"/>
    </contour>
    <contour>
      <point x="100" y="0" type="line"/>
      <point x="66" y="0" type="line"/>
      <point x="65" y="5" type="line"/>
      <point x="100" y="35" type="line"/>
    </contour>
    <contour>
      <point x="100" y="700" type="line"/>
      <point x="100" y="665" type="line"/>
      <point x="65" y="695" type="line"/>
      <point x="66" y="700" type="line"/>
    </contour>
    <contour>
      <point x="100" y="700" type="line"/>
      <point x="210" y="700" type="line"/>
      <point x="210" y="0" type="line"/>
      <point x="100" y="0" type="line"/>
    </contour>
    <contour>
      <point x="172" y="0" type="line"/>
      <point x="172" y="100" type="line"/>
      <point x="587" y="100" type="line"/>
      <point x="596" y="0" type="line"/>
    </contour>
    <contour>
      <point x="651" y="173" type="line"/>
      <point x="655" y="171" type="line"/>
      <point x="596" y="0" type="line"/>
      <point x="587" y="100" type="line"/>
    </contour>
  </outline>
</glyph>
<glyph name="M" format="2">
  <advance width="960"/>
  <unicode hex="004D"/>
  <anchor x="480" y="700" name="top"/>
  <anchor x="480" y="0" name="bottom"/>
  <outline>
    <contour>
      <point x="510" y="0" type="line"/>
      <point x="520" y="35" type="line"/>
      <point x="555" y="5" type="line"/>
      <point x="554" y="0" type="line"/>
    </contour>
    <contour>
      <point x="450" y="0" type="line"/>
      <point x="406" y="0" type="line"/>
      <point x="405" y="5" type="line"/>
      <point x="440" y="35" type="line"/>
    </contour>
    <contour>
      <point x="860" y="700" type="line"/>
      <point x="894" y="700" type="line"/>
      <point x="895" y="695" type="line"/>
      <point x="860" y="665" type="line"/>
    </contour>
    <contour>
      <point x="860" y="0" type="line"/>
      <point x="860" y="35" type="line"/>
      <point x="895" y="5" type="line"/>
      <point x="894" y="0" type="line"/>
    </contour>
    <contour>
      <point x="280" y="700" type="line"/>
      <point x="324" y="700" type="line"/>
      <point x="325" y="695" type="line"/>
      <point x="290" y="665" type="line"/>
    </contour>
    <contour>
      <point x="205" y="0" type="line"/>
      <point x="205" y="35" type="line"/>
      <point x="240" y="5" type="line"/>
      <point x="239" y="0" type="line"/>
    </contour>
    <contour>
      <point x="755" y="0" type="line"/>
      <point x="721" y="0" type="line"/>
      <point x="720" y="5" type="line"/>
      <point x="755" y="35" type="line"/>
    </contour>
    <contour>
      <point x="680" y="700" type="line"/>
      <point x="670" y="665" type="line"/>
      <point x="635" y="695" type="line"/>
      <point x="636" y="700" type="line"/>
    </contour>
    <contour>
      <point x="100" y="0" type="line"/>
      <point x="66" y="0" type="line"/>
      <point x="65" y="5" type="line"/>
      <point x="100" y="35" type="line"/>
    </contour>
    <contour>
      <point x="100" y="700" type="line"/>
      <point x="100" y="665" type="line"/>
      <point x="65" y="695" type="line"/>
      <point x="66" y="700" type="line"/>
    </contour>
    <contour>
      <point x="785" y="700" type="line"/>
      <point x="860" y="700" type="line"/>
      <point x="860" y="0" type="line"/>
      <point x="755" y="0" type="line"/>
      <point x="755" y="520" type="line"/>
      <point x="760" y="620" type="line"/>
    </contour>
    <contour>
      <point x="100" y="700" type="line"/>
      <point x="175" y="700" type="line"/>
      <point x="200" y="620" type="line"/>
      <point x="205" y="520" type="line"/>
      <point x="205" y="0" type="line"/>
      <point x="100" y="0" type="line"/>
    </contour>
    <contour>
      <point x="200" y="620" type="line"/>
      <point x="175" y="700" type="line"/>
      <point x="280" y="700" type="line"/>
      <point x="480" y="193" type="line"/>
      <point x="680" y="700" type="line"/>
      <point x="785" y="700" type="line"/>
      <point x="760" y="620" type="line"/>
      <point x="510" y="0" type="line"/>
      <point x="450" y="0" type="line"/>
    </contour>
  </outline>
</glyph>
<glyph name="N" format="2">
  <advance width="776"/>
  <unicode hex="004E"/>
  <anchor x="152" y="0" name="cedilla"/>
  <anchor x="392" y="0" name="bottom"/>
  <anchor x="392" y="700" name="top"/>
  <outline>
    <contour>
      <point x="676" y="0" type="line"/>
      <point x="676" y="35" type="line"/>
      <point x="711" y="5" type="line"/>
      <point x="710" y="0" type="line"/>
    </contour>
    <contour>
      <point x="571" y="700" type="line"/>
      <point x="571" y="665" type="line"/>
      <point x="536" y="695" type="line"/>
      <point x="537" y="700" type="line"/>
    </contour>
    <contour>
      <point x="581" y="0" type="line"/>
      <point x="537" y="0" type="line"/>
      <point x="536" y="5" type="line"/>
      <point x="571" y="35" type="line"/>
    </contour>
    <contour>
      <point x="676" y="700" type="line"/>
      <point x="710" y="700" type="line"/>
      <point x="711" y="695" type="line"/>
      <point x="676" y="665" type="line"/>
    </contour>
    <contour>
      <point x="230" y="700" type="line"/>
      <point x="274" y="700" type="line"/>
      <point x="275" y="695" type="line"/>
      <point x="240" y="665" type="line"/>
    </contour>
    <contour>
      <point x="205" y="0" type="line"/>
      <point x="205" y="35" type="line"/>
      <point x="240" y="5" type="line"/>
      <point x="239" y="0" type="line"/>
    </contour>
    <contour>
      <point x="100" y="0" type="line"/>
      <point x="66" y="0" type="line"/>
      <point x="65" y="5" type="line"/>
      <point x="100" y="35" type="line"/>
    </contour>
    <contour>
      <point x="100" y="700" type="line"/>
      <point x="100" y="665" type="line"/>
      <point x="65" y="695" type="line"/>
      <point x="66" y="700" type="line"/>
    </contour>
    <contour>
      <point x="205" y="565" type="line"/>
      <point x="205" y="700" type="line"/>
      <point x="230" y="700" type="line"/>
      <point x="571" y="205" type="line"/>
      <point x="571" y="25" type="line"/>
      <point x="255" y="480" type="line"/>
    </contour>
    <contour>
      <point x="571" y="700" type="line"/>
      <point x="676" y="700" type="line"/>
      <point x="676" y="0" type="line"/>
      <point x="571" y="0" type="line"/>
    </contour>
    <contour>
      <point x="100" y="700" type="line"/>
      <point x="205" y="700" type="line"/>
      <point x="205" y="0" type="line"/>
      <point x="100" y="0" type="line"/>
    </contour>
  </outline>
</glyph>
<glyph name="O" format="2">
  <advance width="810"/>
  <unicode hex="004F"/>
  <anchor x="405" y="700" name="top"/>
  <anchor x="405" y="0" name="bottom"/>
  <outline>
    <contour>
      <point x="165" y="350" type="curve" smooth="yes"/>
      <point x="165" y="186"/>
      <point x="272" y="95"/>
      <point x="405" y="95" type="curve" smooth="yes"/>
      <point x="538" y="95"/>
      <point x="645" y="186"/>
      <point x="645" y="350" type="curve" smooth="yes"/>
      <point x="645" y="514"/>
      <point x="538" y="605"/>
      <point x="405" y="605" type="curve" smooth="yes"/>
      <point x="272" y="605"/>
      <point x="165" y="514"/>
    </contour>
    <contour>
      <point x="50" y="350" type="curve" smooth="yes"/>
      <point x="50" y="574"/>
      <point x="226" y="710"/>
      <point x="405" y="710" type="curve" smooth="yes"/>
      <point x="584" y="710"/>
      <point x="760" y="574"/>
      <point x="760" y="350" type="curve" smooth="yes"/>
      <point x="760" y="126"/>
      <point x="584" y="-10"/>
      <point x="405" y="-10" type="curve" smooth="yes"/>
      <point x="226" y="-10"/>
      <point x="50" y="126"/>
    </contour>
  </outline>
</glyph>
<glyph name="P" format="2">
  <advance width="703"/>
  <unicode hex="0050"/>
  <anchor x="333" y="700" name="top"/>
  <anchor x="158" y="0" name="bottom"/>
  <outline>
    <contour>
      <point x="205" y="0" type="line"/>
      <point x="205" y="35" type="line"/>
      <point x="240" y="5" type="line"/>
      <point x="239" y="0" type="line"/>
    </contour>
    <contour>
      <point x="100" y="0" type="line"/>
      <point x="66" y="0" type="line"/>
      <point x="65" y="5" type="line"/>
      <point x="100" y="35" type="line"/>
    </contour>
    <contour>
      <point x="100" y="700" type="line"/>
      <point x="100" y="665" type="line"/>
      <point x="65" y="695" type="line"/>
      <point x="66" y="700" type="line"/>
    </contour>
    <contour>
      <point x="100" y="700" type="line"/>
      <point x="205" y="700" type="line"/>
      <point x="205" y="0" type="line"/>
      <point x="100" y="0" type="line"/>
    </contour>
    <contour>
      <point x="147" y="600" type="line"/>
      <point x="147" y="700" type="line"/>
      <point x="430" y="700" type="line" smooth="yes"/>
      <point x="565" y="700"/>
      <point x="668" y="649"/>
      <point x="668" y="505" type="curve" smooth="yes"/>
      <point x="668" y="362"/>
      <point x="565" y="310"/>
      <point x="430" y="310" type="curve" smooth="yes"/>
      <point x="147" y="310" type="line"/>
      <point x="147" y="410" type="line"/>
      <point x="435" y="410" type="line" smooth="yes"/>
      <point x="511" y="410"/>
      <point x="558" y="439"/>
      <point x="558" y="505" type="curve" smooth="yes"/>
      <point x="558" y="571"/>
      <point x="511" y="600"/>
      <point x="435" y="600" type="curve" smooth="yes"/>
    </contour>
  </outline>
</glyph>
<glyph name="Q" format="2">
  <advance width="810"/>
  <unicode hex="0051"/>
  <anchor x="405" y="700" name="top"/>
  <outline>
    <contour>
      <point x="408" y="289" type="line"/>
      <point x="584" y="241"/>
      <point x="676" y="41"/>
      <point x="769" y="5" type="curve"/>
      <point x="769" y="0" type="line"/>
      <point x="624" y="0" type="line"/>
      <point x="564" y="62"/>
      <point x="500" y="181"/>
      <point x="349" y="200" type="curve"/>
      <point x="347" y="202" type="line"/>
    </contour>
    <contour>
      <point x="165" y="350" type="curve" smooth="yes"/>
      <point x="165" y="186"/>
      <point x="272" y="95"/>
      <point x="405" y="95" type="curve" smooth="yes"/>
      <point x="538" y="95"/>
      <point x="645" y="186"/>
      <point x="645" y="350" type="curve" smooth="yes"/>
      <point x="645" y="514"/>
      <point x="538" y="605"/>
      <point x="405" y="605" type="curve" smooth="yes"/>
      <point x="272" y="605"/>
      <point x="165" y="514"/>
    </contour>
    <contour>
      <point x="50" y="350" type="curve" smooth="yes"/>
      <point x="50" y="574"/>
      <point x="226" y="710"/>
      <point x="405" y="710" type="curve" smooth="yes"/>
      <point x="584" y="710"/>
      <point x="760" y="574"/>
      <point x="760" y="350" type="curve" smooth="yes"/>
      <point x="760" y="126"/>
      <point x="584" y="-10"/>
      <point x="405" y="-10" type="curve" smooth="yes"/>
      <point x="226" y="-10"/>
      <point x="50" y="126"/>
    </contour>
  </outline>
</glyph>
<glyph name="R" format="2">
  <advance width="733"/>
  <unicode hex="0052"/>
  <anchor x="378" y="700" name="top"/>
  <anchor x="413" y="0" name="bottom"/>
  <anchor x="153" y="0" name="cedilla"/>
  <outline>
    <contour>
      <point x="638" y="0" type="line"/>
      <point x="632" y="40" type="line"/>
      <point x="673" y="5" type="line"/>
      <point x="672" y="0" type="line"/>
    </contour>
    <contour>
      <point x="205" y="0" type="line"/>
      <point x="205" y="35" type="line"/>
      <point x="240" y="5" type="line"/>
      <point x="239" y="0" type="line"/>
    </contour>
    <contour>
      <point x="528" y="0" type="line"/>
      <point x="494" y="0" type="line"/>
      <point x="493" y="5" type="line"/>
      <point x="528" y="35" type="line"/>
    </contour>
    <contour>
      <point x="100" y="0" type="line"/>
      <point x="66" y="0" type="line"/>
      <point x="65" y="5" type="line"/>
      <point x="100" y="35" type="line"/>
    </contour>
    <contour>
      <point x="100" y="700" type="line"/>
      <point x="100" y="665" type="line"/>
      <point x="65" y="695" type="line"/>
      <point x="66" y="700" type="line"/>
    </contour>
    <contour>
      <point x="528" y="0" type="line"/>
      <point x="528" y="143.153"/>
      <point x="513.262" y="225.795"/>
      <point x="481.674" y="272" type="curve" smooth="yes"/>
      <point x="465.599" y="295.513"/>
      <point x="448.643" y="307"/>
      <point x="408" y="307" type="curve" smooth="yes"/>
      <point x="147" y="307" type="line"/>
      <point x="147" y="375" type="line"/>
      <point x="430" y="375" type="line" smooth="yes"/>
      <point x="560" y="375"/>
      <point x="638" y="303"/>
      <point x="638" y="0" type="curve"/>
    </contour>
    <contour>
      <point x="100" y="700" type="line"/>
      <point x="205" y="700" type="line"/>
      <point x="205" y="0" type="line"/>
      <point x="100" y="0" type="line"/>
    </contour>
    <contour>
      <point x="147" y="600" type="line"/>
      <point x="147" y="700" type="line"/>
      <point x="450" y="700" type="line" smooth="yes"/>
      <point x="575" y="700"/>
      <point x="668" y="636"/>
      <point x="668" y="510" type="curve" smooth="yes"/>
      <point x="668" y="386"/>
      <point x="555" y="320"/>
      <point x="430" y="320" type="curve" smooth="yes"/>
      <point x="147" y="320" type="line"/>
      <point x="147" y="400" type="line"/>
      <point x="444" y="400" type="line" smooth="yes"/>
      <point x="520" y="400"/>
      <point x="562" y="434"/>
      <point x="562" y="500" type="curve" smooth="yes"/>
      <point x="562" y="566"/>
      <point x="520" y="600"/>
      <point x="444" y="600" type="curve" smooth="yes"/>
    </contour>
  </outline>
</glyph>
<glyph name="S" format="2">
  <advance width="715"/>
  <unicode hex="0053"/>
  <anchor x="353" y="700" name="top"/>
  <anchor x="373" y="-1" name="bottom"/>
  <anchor x="373" y="0" name="cedilla"/>
  <outline>
    <contour>
      <point x="135" y="49" type="line"/>
      <point x="85" y="14" type="line"/>
      <point x="80" y="15" type="line"/>
      <point x="30" y="237" type="line"/>
      <point x="37" y="240" type="line"/>
    </contour>
    <contour>
      <point x="552" y="650" type="line"/>
      <point x="594" y="695" type="line"/>
      <point x="599" y="694" type="line"/>
      <point x="654" y="472" type="line"/>
      <point x="647" y="469" type="line"/>
    </contour>
    <contour>
      <point x="37" y="240" type="line"/>
      <point x="107" y="156"/>
      <point x="235" y="80"/>
      <point x="379" y="80" type="curve" smooth="yes"/>
      <point x="494" y="80"/>
      <point x="567" y="121"/>
      <point x="567" y="188" type="curve" smooth="yes"/>
      <point x="567" y="248"/>
      <point x="522" y="283"/>
      <point x="372" y="295" type="curve" smooth="yes"/>
      <point x="158" y="312"/>
      <point x="48" y="370"/>
      <point x="48" y="502" type="curve" smooth="yes"/>
      <point x="48" y="626"/>
      <point x="164" y="707"/>
      <point x="343" y="707" type="curve" smooth="yes"/>
      <point x="436" y="707"/>
      <point x="541" y="672"/>
      <point x="586" y="638" type="curve"/>
      <point x="647" y="469" type="line"/>
      <point x="572" y="552"/>
      <point x="480" y="611"/>
      <point x="326" y="611" type="curve" smooth="yes"/>
      <point x="241" y="611"/>
      <point x="160" y="572"/>
      <point x="160" y="513" type="curve" smooth="yes"/>
      <point x="160" y="449"/>
      <point x="240.982" y="414.766"/>
      <point x="401" y="403" type="curve" smooth="yes"/>
      <point x="605" y="388"/>
      <point x="680" y="316"/>
      <point x="680" y="194" type="curve" smooth="yes"/>
      <point x="680" y="66"/>
      <point x="554" y="-20"/>
      <point x="383" y="-20" type="curve" smooth="yes"/>
      <point x="229" y="-20"/>
      <point x="144" y="32"/>
      <point x="89" y="87" type="curve"/>
    </contour>
  </outline>
</glyph>
<glyph name="T" format="2">
  <advance width="732"/>
  <unicode hex="0054"/>
  <anchor x="363" y="700" name="top"/>
  <anchor x="366" y="0" name="bottom"/>
  <anchor x="366" y="0" name="cedilla"/>
  <outline>
    <contour>
      <point x="421" y="0" type="line"/>
      <point x="421" y="35" type="line"/>
      <point x="456" y="5" type="line"/>
      <point x="455" y="0" type="line"/>
    </contour>
    <contour>
      <point x="311" y="0" type="line"/>
      <point x="277" y="0" type="line"/>
      <point x="276" y="5" type="line"/>
      <point x="311" y="35" type="line"/>
    </contour>
    <contour>
      <point x="311" y="600" type="line"/>
      <point x="91" y="600" type="line"/>
      <point x="77" y="700" type="line"/>
      <point x="311" y="700" type="line"/>
    </contour>
    <contour>
      <point x="5" y="501" type="line"/>
      <point x="0" y="505" type="line"/>
      <point x="77" y="700" type="line"/>
      <point x="98" y="600" type="line"/>
    </contour>
    <contour>
      <point x="421" y="600" type="line"/>
      <point x="421" y="700" type="line"/>
      <point x="655" y="700" type="line"/>
      <point x="641" y="600" type="line"/>
    </contour>
    <contour>
      <point x="311" y="700" type="line"/>
      <point x="421" y="700" type="line"/>
      <point x="421" y="0" type="line"/>
      <point x="311" y="0" type="line"/>
    </contour>
    <contour>
      <point x="727" y="501" type="line"/>
      <point x="634" y="600" type="line"/>
      <point x="655" y="700" type="line"/>
      <point x="732" y="505" type="line"/>
    </contour>
  </outline>
</glyph>
<glyph name="U" format="2">
  <advance width="770"/>
  <unicode hex="0055"/>
  <anchor x="389" y="700" name="top"/>
  <anchor x="385" y="0" name="bottom"/>
  <anchor x="385" y="0" name="cedilla"/>
  <outline>
    <contour>
      <point x="680" y="700" type="line"/>
      <point x="714" y="700" type="line"/>
      <point x="715" y="695" type="line"/>
      <point x="680" y="665" type="line"/>
    </contour>
    <contour>
      <point x="200" y="700" type="line"/>
      <point x="234" y="700" type="line"/>
      <point x="235" y="695" type="line"/>
      <point x="200" y="665" type="line"/>
    </contour>
    <contour>
      <point x="570" y="700" type="line"/>
      <point x="570" y="665" type="line"/>
      <point x="535" y="695" type="line"/>
      <point x="536" y="700" type="line"/>
    </contour>
    <contour>
      <point x="90" y="700" type="line"/>
      <point x="90" y="665" type="line"/>
      <point x="55" y="695" type="line"/>
      <point x="56" y="700" type="line"/>
    </contour>
    <contour>
      <point x="90" y="700" type="line"/>
      <point x="200" y="700" type="line"/>
      <point x="200" y="242" type="line" smooth="yes"/>
      <point x="200" y="146"/>
      <point x="285" y="90"/>
      <point x="385" y="90" type="curve" smooth="yes"/>
      <point x="495" y="90"/>
      <point x="570" y="146"/>
      <point x="570" y="242" type="curve" smooth="yes"/>
      <point x="570" y="700" type="line"/>
      <point x="680" y="700" type="line"/>
      <point x="680" y="245" type="line" smooth="yes"/>
      <point x="680" y="86"/>
      <point x="560" y="-10"/>
      <point x="385" y="-10" type="curve" smooth="yes"/>
      <point x="210" y="-10"/>
      <point x="90" y="86"/>
      <point x="90" y="245" type="curve" smooth="yes"/>
    </contour>
  </outline>
</glyph>
<glyph name="V" format="2">
  <advance width="714"/>
  <unicode hex="0056"/>
  <anchor x="355" y="700" name="top"/>
  <anchor x="356" y="0" name="bottom"/>
  <outline>
    <contour>
      <point x="132" y="700" type="line"/>
      <point x="176" y="700" type="line"/>
      <point x="177" y="695" type="line"/>
      <point x="142" y="665" type="line"/>
    </contour>
    <contour>
      <point x="582" y="700" type="line"/>
      <point x="572" y="665" type="line"/>
      <point x="537" y="695" type="line"/>
      <point x="538" y="700" type="line"/>
    </contour>
    <contour>
      <point x="50" y="700" type="line"/>
      <point x="60" y="648" type="line"/>
      <point x="5" y="695" type="line"/>
      <point x="6" y="700" type="line"/>
    </contour>
    <contour>
      <point x="664" y="700" type="line"/>
      <point x="708" y="700" type="line"/>
      <point x="709" y="695" type="line"/>
      <point x="654" y="648" type="line"/>
    </contour>
    <contour>
      <point x="429" y="0" type="line"/>
      <point x="439" y="35" type="line"/>
      <point x="474" y="5" type="line"/>
      <point x="473" y="0" type="line"/>
    </contour>
    <contour>
      <point x="285" y="0" type="line"/>
      <point x="241" y="0" type="line"/>
      <point x="240" y="5" type="line"/>
      <point x="275" y="35" type="line"/>
    </contour>
    <contour>
      <point x="357" y="99" type="line"/>
      <point x="572" y="700" type="line"/>
      <point x="684" y="700" type="line"/>
      <point x="429" y="0" type="line"/>
      <point x="285" y="0" type="line"/>
      <point x="30" y="700" type="line"/>
      <point x="142" y="700" type="line"/>
    </contour>
  </outline>
</glyph>
<glyph name="W" format="2">
  <advance width="1070"/>
  <unicode hex="0057"/>
  <anchor x="533" y="700" name="top"/>
  <anchor x="533" y="0" name="bottom"/>
  <outline>
    <contour>
      <point x="945" y="700" type="line"/>
      <point x="935" y="665" type="line"/>
      <point x="900" y="695" type="line"/>
      <point x="901" y="700" type="line"/>
    </contour>
    <contour>
      <point x="1020" y="700" type="line"/>
      <point x="1064" y="700" type="line"/>
      <point x="1065" y="695" type="line"/>
      <point x="1010" y="648" type="line"/>
    </contour>
    <contour>
      <point x="795" y="0" type="line"/>
      <point x="805" y="35" type="line"/>
      <point x="840" y="5" type="line"/>
      <point x="839" y="0" type="line"/>
    </contour>
    <contour>
      <point x="725" y="0" type="line"/>
      <point x="681" y="0" type="line"/>
      <point x="680" y="5" type="line"/>
      <point x="715" y="35" type="line"/>
    </contour>
    <contour>
      <point x="495" y="700" type="line"/>
      <point x="485" y="665" type="line"/>
      <point x="450" y="695" type="line"/>
      <point x="451" y="700" type="line"/>
    </contour>
    <contour>
      <point x="575" y="700" type="line"/>
      <point x="619" y="700" type="line"/>
      <point x="620" y="695" type="line"/>
      <point x="585" y="665" type="line"/>
    </contour>
    <contour>
      <point x="130" y="700" type="line"/>
      <point x="174" y="700" type="line"/>
      <point x="175" y="695" type="line"/>
      <point x="140" y="665" type="line"/>
    </contour>
    <contour>
      <point x="50" y="700" type="line"/>
      <point x="60" y="648" type="line"/>
      <point x="5" y="695" type="line"/>
      <point x="6" y="700" type="line"/>
    </contour>
    <contour>
      <point x="345" y="0" type="line"/>
      <point x="355" y="35" type="line"/>
      <point x="390" y="5" type="line"/>
      <point x="389" y="0" type="line"/>
    </contour>
    <contour>
      <point x="275" y="0" type="line"/>
      <point x="231" y="0" type="line"/>
      <point x="230" y="5" type="line"/>
      <point x="265" y="35" type="line"/>
    </contour>
    <contour>
      <point x="765" y="196" type="line"/>
      <point x="935" y="700" type="line"/>
      <point x="1040" y="700" type="line"/>
      <point x="795" y="0" type="line"/>
      <point x="725" y="0" type="line"/>
      <point x="510" y="595" type="line"/>
      <point x="495" y="700" type="line"/>
      <point x="575" y="700" type="line"/>
    </contour>
    <contour>
      <point x="315" y="196" type="line"/>
      <point x="495" y="700" type="line"/>
      <point x="575" y="700" type="line"/>
      <point x="560" y="595" type="line"/>
      <point x="345" y="0" type="line"/>
      <point x="275" y="0" type="line"/>
      <point x="30" y="700" type="line"/>
      <point x="140" y="700" type="line"/>
    </contour>
  </outline>
</glyph>
<glyph name="X" format="2">
  <advance width="661"/>
  <unicode hex="0058"/>
  <anchor x="334" y="700" name="top"/>
  <anchor x="331" y="0" name="bottom"/>
  <outline>
    <contour>
      <point x="508" y="0" type="line"/>
      <point x="464" y="0" type="line"/>
      <point x="463" y="5" type="line"/>
      <point x="498" y="35" type="line"/>
    </contour>
    <contour>
      <point x="606" y="0" type="line"/>
      <point x="596" y="42" type="line"/>
      <point x="661" y="5" type="line"/>
      <point x="660" y="0" type="line"/>
    </contour>
    <contour>
      <point x="153" y="0" type="line"/>
      <point x="163" y="35" type="line"/>
      <point x="198" y="5" type="line"/>
      <point x="197" y="0" type="line"/>
    </contour>
    <contour>
      <point x="55" y="0" type="line"/>
      <point x="1" y="0" type="line"/>
      <point x="0" y="5" type="line"/>
      <point x="65" y="42" type="line"/>
    </contour>
    <contour>
      <point x="168" y="700" type="line"/>
      <point x="212" y="700" type="line"/>
      <point x="213" y="695" type="line"/>
      <point x="178" y="665" type="line"/>
    </contour>
    <contour>
      <point x="70" y="700" type="line"/>
      <point x="80" y="658" type="line"/>
      <point x="15" y="695" type="line"/>
      <point x="16" y="700" type="line"/>
    </contour>
    <contour>
      <point x="503" y="700" type="line"/>
      <point x="493" y="665" type="line"/>
      <point x="458" y="695" type="line"/>
      <point x="459" y="700" type="line"/>
    </contour>
    <contour>
      <point x="601" y="700" type="line"/>
      <point x="655" y="700" type="line"/>
      <point x="656" y="695" type="line"/>
      <point x="591" y="658" type="line"/>
    </contour>
    <contour>
      <point x="503" y="700" type="line"/>
      <point x="633" y="700" type="line"/>
      <point x="391" y="362" type="line"/>
      <point x="638" y="0" type="line"/>
      <point x="508" y="0" type="line"/>
      <point x="333" y="265" type="line"/>
      <point x="153" y="0" type="line"/>
      <point x="23" y="0" type="line"/>
      <point x="276" y="362" type="line"/>
      <point x="38" y="700" type="line"/>
      <point x="168" y="700" type="line"/>
      <point x="334" y="444" type="line"/>
    </contour>
  </outline>
</glyph>
<glyph name="Y" format="2">
  <advance width="650"/>
  <unicode hex="0059"/>
  <anchor x="336" y="700" name="top"/>
  <anchor x="336" y="0" name="bottom"/>
  <outline>
    <contour>
      <point x="136" y="700" type="line"/>
      <point x="188" y="700" type="line"/>
      <point x="189" y="695" type="line"/>
      <point x="154" y="665" type="line"/>
    </contour>
    <contour>
      <point x="45" y="700" type="line"/>
      <point x="55" y="658" type="line"/>
      <point x="-10" y="695" type="line"/>
      <point x="-9" y="700" type="line"/>
    </contour>
    <contour>
      <point x="506" y="700" type="line"/>
      <point x="496" y="665" type="line"/>
      <point x="461" y="695" type="line"/>
      <point x="462" y="700" type="line"/>
    </contour>
    <contour>
      <point x="605" y="700" type="line"/>
      <point x="659" y="700" type="line"/>
      <point x="660" y="695" type="line"/>
      <point x="595" y="658" type="line"/>
    </contour>
    <contour>
      <point x="391" y="0" type="line"/>
      <point x="391" y="35" type="line"/>
      <point x="426" y="5" type="line"/>
      <point x="425" y="0" type="line"/>
    </contour>
    <contour>
      <point x="281" y="0" type="line"/>
      <point x="247" y="0" type="line"/>
      <point x="246" y="5" type="line"/>
      <point x="281" y="35" type="line"/>
    </contour>
    <contour>
      <point x="506" y="700" type="line"/>
      <point x="629" y="700" type="line"/>
      <point x="391" y="247" type="line"/>
      <point x="391" y="0" type="line"/>
      <point x="281" y="0" type="line"/>
      <point x="281" y="246" type="line"/>
      <point x="23" y="700" type="line"/>
      <point x="146" y="700" type="line"/>
      <point x="336" y="345" type="line"/>
    </contour>
  </outline>
</glyph>
<glyph name="Z" format="2">
  <advance width="649"/>
  <unicode hex="005A"/>
  <anchor x="323" y="700" name="top"/>
  <anchor x="328" y="0" name="bottom"/>
  <outline>
    <contour>
      <point x="60" y="530" type="line"/>
      <point x="52" y="535" type="line"/>
      <point x="110" y="700" type="line"/>
      <point x="115" y="600" type="line"/>
    </contour>
    <contour>
      <point x="596" y="170" type="line"/>
      <point x="604" y="165" type="line"/>
      <point x="546" y="0" type="line"/>
      <point x="541" y="100" type="line"/>
    </contour>
    <contour>
      <point x="110" y="600" type="line"/>
      <point x="110" y="700" type="line"/>
      <point x="589" y="700" type="line"/>
      <point x="579" y="640" type="line"/>
      <point x="182" y="100" type="line"/>
      <point x="546" y="100" type="line"/>
      <point x="546" y="0" type="line"/>
      <point x="30" y="0" type="line"/>
      <point x="30" y="60" type="line"/>
      <point x="427" y="600" type="line"/>
    </contour>
  </outline>
</glyph>
<glyph name="backslash" format="2">
  <advance width="665"/>
  <unicode hex="005C"/>
  <outline>
    <contour>
      <point x="495" y="0" type="line"/>
      <point x="451" y="0" type="line"/>
      <point x="450" y="5" type="line"/>
      <point x="485" y="35" type="line"/>
    </contour>
    <contour>
      <point x="578" y="0" type="line"/>
      <point x="568" y="42" type="line"/>
      <point x="633" y="5" type="line"/>
      <point x="632" y="0" type="line"/>
    </contour>
    <contour>
      <point x="170" y="700" type="line"/>
      <point x="214" y="700" type="line"/>
      <point x="215" y="695" type="line"/>
      <point x="180" y="665" type="line"/>
    </contour>
    <contour>
      <point x="87" y="700" type="line"/>
      <point x="97" y="658" type="line"/>
      <point x="32" y="695" type="line"/>
      <point x="33" y="700" type="line"/>
    </contour>
    <contour>
      <point x="55" y="700" type="line"/>
      <point x="175" y="700" type="line"/>
      <point x="610" y="0" type="line"/>
      <point x="490" y="0" type="line"/>
    </contour>
  </outline>
</glyph>
<glyph name="bracketright" format="2">
  <advance width="331"/>
  <unicode hex="005D"/>
  <outline>
    <contour>
      <point x="121" y="-120" type="line"/>
      <point x="121" y="680" type="line"/>
      <point x="20" y="680" type="line"/>
      <point x="20" y="780" type="line"/>
      <point x="231" y="780" type="line"/>
      <point x="231" y="-220" type="line"/>
      <point x="20" y="-220" type="line"/>
      <point x="20" y="-120" type="line"/>
    </contour>
  </outline>
</glyph>
<glyph name="asciicircum" format="2">
  <advance width="570"/>
  <unicode hex="005E"/>
  <outline>
    <contour>
      <point x="285" y="621" type="line"/>
      <point x="165" y="460" type="line"/>
      <point x="45" y="460" type="line"/>
      <point x="245" y="710" type="line"/>
      <point x="325" y="710" type="line"/>
      <point x="525" y="460" type="line"/>
      <point x="405" y="460" type="line"/>
    </contour>
  </outline>
</glyph>
<glyph name="grave" format="2">
  <advance width="375"/>
  <unicode hex="0060"/>
  <outline>
    <contour>
      <point x="71" y="656" type="line"/>
      <point x="160" y="715" type="line"/>
      <point x="310" y="555" type="line"/>
      <point x="251" y="506" type="line"/>
    </contour>
  </outline>
</glyph>
<glyph name="braceleft" format="2">
  <advance width="329"/>
  <unicode hex="007B"/>
  <outline>
    <contour>
      <point x="208" y="690" type="curve" smooth="yes"/>
      <point x="208" y="490" type="line" smooth="yes"/>
      <point x="208" y="371"/>
      <point x="174" y="320"/>
      <point x="65" y="320" type="curve"/>
      <point x="65" y="360" type="line"/>
      <point x="174" y="360"/>
      <point x="208" y="309"/>
      <point x="208" y="190" type="curve" smooth="yes"/>
      <point x="208" y="-10" type="line" smooth="yes"/>
      <point x="208" y="-36"/>
      <point x="229" y="-60"/>
      <point x="256" y="-60" type="curve" smooth="yes"/>
      <point x="268" y="-60"/>
      <point x="281" y="-55"/>
      <point x="291" y="-45" type="curve"/>
      <point x="294" y="-47" type="line"/>
      <point x="281" y="-150" type="line"/>
      <point x="231" y="-150" type="line" smooth="yes"/>
      <point x="187" y="-150"/>
      <point x="98" y="-109"/>
      <point x="98" y="-10" type="curve" smooth="yes"/>
      <point x="98" y="200" type="line" smooth="yes"/>
      <point x="98" y="266"/>
      <point x="80" y="295"/>
      <point x="50" y="295" type="curve"/>
      <point x="50" y="385" type="line"/>
      <point x="80" y="385"/>
      <point x="98" y="414"/>
      <point x="98" y="480" type="curve" smooth="yes"/>
      <point x="98" y="690" type="line" smooth="yes"/>
      <point x="98" y="789"/>
      <point x="187" y="830"/>
      <point x="231" y="830" type="curve" smooth="yes"/>
      <point x="281" y="830" type="line"/>
      <point x="294" y="727" type="line"/>
      <point x="291" y="725" type="line"/>
      <point x="282" y="735"/>
      <point x="267" y="740"/>
      <point x="256" y="740" type="curve" smooth="yes"/>
      <point x="229" y="740"/>
      <point x="208" y="716"/>
    </contour>
  </outline>
</glyph>
<glyph name="braceright" format="2">
  <advance width="329"/>
  <unicode hex="007D"/>
  <outline>
    <contour>
      <point x="121" y="-10" type="curve" smooth="yes"/>
      <point x="121" y="190" type="line" smooth="yes"/>
      <point x="121" y="309"/>
      <point x="155" y="360"/>
      <point x="264" y="360" type="curve"/>
      <point x="264" y="320" type="line"/>
      <point x="155" y="320"/>
      <point x="121" y="371"/>
      <point x="121" y="490" type="curve" smooth="yes"/>
      <point x="121" y="690" type="line" smooth="yes"/>
      <point x="121" y="716"/>
      <point x="100" y="740"/>
      <point x="73" y="740" type="curve" smooth="yes"/>
      <point x="61" y="740"/>
      <point x="48" y="735"/>
      <point x="38" y="725" type="curve"/>
      <point x="35" y="727" type="line"/>
      <point x="48" y="830" type="line"/>
      <point x="98" y="830" type="line" smooth="yes"/>
      <point x="142" y="830"/>
      <point x="231" y="789"/>
      <point x="231" y="690" type="curve" smooth="yes"/>
      <point x="231" y="480" type="line" smooth="yes"/>
      <point x="231" y="414"/>
      <point x="249" y="385"/>
      <point x="279" y="385" type="curve"/>
      <point x="279" y="295" type="line"/>
      <point x="249" y="295"/>
      <point x="231" y="266"/>
      <point x="231" y="200" type="curve" smooth="yes"/>
      <point x="231" y="-10" type="line" smooth="yes"/>
      <point x="231" y="-109"/>
      <point x="142" y="-150"/>
      <point x="98" y="-150" type="curve" smooth="yes"/>
      <point x="48" y="-150" type="line"/>
      <point x="35" y="-47" type="line"/>
      <point x="38" y="-45" type="line"/>
      <point x="47" y="-55"/>
      <point x="62" y="-60"/>
      <point x="73" y="-60" type="curve" smooth="yes"/>
      <point x="100" y="-60"/>
      <point x="121" y="-36"/>
    </contour>
  </outline>
</glyph>
<glyph name="asciitilde" format="2">
  <advance width="575"/>
  <unicode hex="007E"/>
  <outline>
    <contour>
      <point x="167" y="176" type="curve"/>
      <point x="165" y="173" type="line"/>
      <point x="61" y="181" type="line"/>
      <point x="60" y="191"/>
      <point x="60" y="206"/>
      <point x="60" y="215" type="curve" smooth="yes"/>
      <point x="60" y="236"/>
      <point x="66" y="271"/>
      <point x="84" y="295" type="curve" smooth="yes"/>
      <point x="110" y="330"/>
      <point x="147" y="337"/>
      <point x="189" y="337" type="curve" smooth="yes"/>
      <point x="228" y="337"/>
      <point x="270.41" y="318.848"/>
      <point x="307" y="294" type="curve" smooth="yes"/>
      <point x="335.128" y="274.899"/>
      <point x="362" y="257"/>
      <point x="390" y="257" type="curve" smooth="yes"/>
      <point x="414" y="257"/>
      <point x="422" y="264"/>
      <point x="422" y="291" type="curve" smooth="yes"/>
      <point x="422" y="299"/>
      <point x="419" y="312"/>
      <point x="405" y="323" type="curve"/>
      <point x="407" y="326" type="line"/>
      <point x="513" y="318" type="line"/>
      <point x="514" y="310"/>
      <point x="515" y="300"/>
      <point x="515" y="280" type="curve" smooth="yes"/>
      <point x="515" y="260"/>
      <point x="510" y="222"/>
      <point x="493" y="199" type="curve" smooth="yes"/>
      <point x="467" y="165"/>
      <point x="435" y="162"/>
      <point x="399" y="162" type="curve" smooth="yes"/>
      <point x="365" y="162"/>
      <point x="322" y="184"/>
      <point x="289" y="205" type="curve" smooth="yes"/>
      <point x="257.108" y="225.295"/>
      <point x="218" y="243"/>
      <point x="193" y="243" type="curve" smooth="yes"/>
      <point x="162" y="243"/>
      <point x="148" y="228"/>
      <point x="148" y="203" type="curve" smooth="yes"/>
      <point x="148" y="196"/>
      <point x="152" y="184"/>
    </contour>
  </outline>
</glyph>
<glyph name="sterling" format="2">
  <advance width="736"/>
  <unicode hex="00A3"/>
  <outline>
    <contour>
      <point x="493" y="-13" type="curve" smooth="yes"/>
      <point x="396" y="-13"/>
      <point x="343" y="22"/>
      <point x="257" y="22" type="curve" smooth="yes"/>
      <point x="211" y="22"/>
      <point x="157" y="11"/>
      <point x="109" y="-15" type="curve"/>
      <point x="40" y="70" type="line"/>
      <point x="93" y="127"/>
      <point x="152" y="203"/>
      <point x="152" y="259" type="curve" smooth="yes"/>
      <point x="152" y="371"/>
      <point x="80" y="395"/>
      <point x="80" y="520" type="curve" smooth="yes"/>
      <point x="80" y="650"/>
      <point x="194" y="720"/>
      <point x="348" y="720" type="curve" smooth="yes"/>
      <point x="461" y="720"/>
      <point x="531" y="680"/>
      <point x="576" y="620" type="curve"/>
      <point x="615" y="513" type="line"/>
      <point x="581" y="574"/>
      <point x="487" y="620"/>
      <point x="371" y="620" type="curve" smooth="yes"/>
      <point x="251" y="620"/>
      <point x="195" y="580"/>
      <point x="195" y="505" type="curve" smooth="yes"/>
      <point x="195" y="402"/>
      <point x="269" y="391"/>
      <point x="269" y="279" type="curve" smooth="yes"/>
      <point x="269" y="203"/>
      <point x="207" y="117"/>
      <point x="124" y="50" type="curve"/>
      <point x="109" y="60" type="line"/>
      <point x="150" y="101"/>
      <point x="211" y="127"/>
      <point x="297" y="127" type="curve" smooth="yes"/>
      <point x="383" y="127"/>
      <point x="426" y="97"/>
      <point x="503" y="97" type="curve" smooth="yes"/>
      <point x="562" y="97"/>
      <point x="608" y="143"/>
      <point x="617" y="205" type="curve"/>
      <point x="624" y="207" type="line"/>
      <point x="674" y="55" type="line"/>
      <point x="635" y="18"/>
      <point x="585" y="-13"/>
    </contour>
    <contour>
      <point x="506" y="675" type="line"/>
      <point x="556" y="715" type="line"/>
      <point x="560" y="714" type="line"/>
      <point x="621" y="517" type="line"/>
      <point x="615" y="513" type="line"/>
    </contour>
    <contour>
      <point x="11" y="342" type="line"/>
      <point x="11" y="412" type="line"/>
      <point x="461" y="412" type="line"/>
      <point x="461" y="342" type="line"/>
    </contour>
  </outline>
</glyph>
<glyph name="yen" format="2">
  <advance width="650"/>
  <unicode hex="00A5"/>
  <outline>
    <contour>
      <point x="61" y="326" type="line"/>
      <point x="61" y="396" type="line"/>
      <point x="271" y="397" type="line"/>
      <point x="271" y="327" type="line"/>
    </contour>
    <contour>
      <point x="61" y="186" type="line"/>
      <point x="61" y="256" type="line"/>
      <point x="611" y="257" type="line"/>
      <point x="611" y="187" type="line"/>
    </contour>
    <contour>
      <point x="401" y="326" type="line"/>
      <point x="401" y="396" type="line"/>
      <point x="611" y="397" type="line"/>
      <point x="611" y="327" type="line"/>
    </contour>
    <contour>
      <point x="136" y="700" type="line"/>
      <point x="183" y="700" type="line"/>
      <point x="184" y="695" type="line"/>
      <point x="149" y="665" type="line"/>
    </contour>
    <contour>
      <point x="45" y="700" type="line"/>
      <point x="55" y="658" type="line"/>
      <point x="-10" y="695" type="line"/>
      <point x="-9" y="700" type="line"/>
    </contour>
    <contour>
      <point x="511" y="700" type="line"/>
      <point x="501" y="665" type="line"/>
      <point x="466" y="695" type="line"/>
      <point x="467" y="700" type="line"/>
    </contour>
    <contour>
      <point x="605" y="700" type="line"/>
      <point x="659" y="700" type="line"/>
      <point x="660" y="695" type="line"/>
      <point x="595" y="658" type="line"/>
    </contour>
    <contour>
      <point x="391" y="0" type="line"/>
      <point x="391" y="35" type="line"/>
      <point x="426" y="5" type="line"/>
      <point x="425" y="0" type="line"/>
    </contour>
    <contour>
      <point x="281" y="0" type="line"/>
      <point x="247" y="0" type="line"/>
      <point x="246" y="5" type="line"/>
      <point x="281" y="35" type="line"/>
    </contour>
    <contour>
      <point x="511" y="700" type="line"/>
      <point x="629" y="700" type="line"/>
      <point x="391" y="247" type="line"/>
      <point x="391" y="0" type="line"/>
      <point x="281" y="0" type="line"/>
      <point x="281" y="246" type="line"/>
      <point x="23" y="700" type="line"/>
      <point x="141" y="700" type="line"/>
      <point x="336" y="345" type="line"/>
    </contour>
  </outline>
</glyph>
<glyph name="brokenbar" format="2">
  <advance width="304"/>
  <unicode hex="00A6"/>
  <outline>
    <contour>
      <point x="204" y="780" type="line"/>
      <point x="238" y="780" type="line"/>
      <point x="239" y="775" type="line"/>
      <point x="204" y="745" type="line"/>
    </contour>
    <contour>
      <point x="204" y="-220" type="line"/>
      <point x="204" y="-185" type="line"/>
      <point x="239" y="-215" type="line"/>
      <point x="238" y="-220" type="line"/>
    </contour>
    <contour>
      <point x="100" y="-220" type="line"/>
      <point x="66" y="-220" type="line"/>
      <point x="65" y="-215" type="line"/>
      <point x="100" y="-185" type="line"/>
    </contour>
    <contour>
      <point x="100" y="780" type="line"/>
      <point x="100" y="745" type="line"/>
      <point x="65" y="775" type="line"/>
      <point x="66" y="780" type="line"/>
    </contour>
    <contour>
      <point x="100" y="780" type="line"/>
      <point x="204" y="780" type="line"/>
      <point x="204" y="380" type="line"/>
      <point x="100" y="380" type="line"/>
    </contour>
    <contour>
      <point x="100" y="180" type="line"/>
      <point x="204" y="180" type="line"/>
      <point x="204" y="-220" type="line"/>
      <point x="100" y="-220" type="line"/>
    </contour>
  </outline>
</glyph>
<glyph name="guillemotleft" format="2">
  <advance width="522"/>
  <unicode hex="00AB"/>
  <outline>
    <contour>
      <point x="318" y="259" type="line"/>
      <point x="468" y="65" type="line"/>
      <point x="401" y="12" type="line"/>
      <point x="215" y="255" type="line"/>
      <point x="401" y="498" type="line"/>
      <point x="468" y="445" type="line"/>
    </contour>
    <contour>
      <point x="141" y="259" type="line"/>
      <point x="291" y="65" type="line"/>
      <point x="223" y="12" type="line"/>
      <point x="38" y="255" type="line"/>
      <point x="223" y="498" type="line"/>
      <point x="291" y="445" type="line"/>
    </contour>
  </outline>
</glyph>
<glyph name="logicalnot" format="2">
  <advance width="535"/>
  <unicode hex="00AC"/>
  <outline>
    <contour>
      <point x="376" y="515" type="line"/>
      <point x="60" y="515" type="line"/>
      <point x="60" y="615" type="line"/>
      <point x="476" y="615" type="line"/>
      <point x="476" y="373" type="line"/>
      <point x="376" y="373" type="line"/>
    </contour>
  </outline>
</glyph>
<glyph name="macron" format="2">
  <advance width="369"/>
  <unicode hex="00AF"/>
  <outline>
    <contour>
      <point x="20" y="385" type="line"/>
      <point x="20" y="485" type="line"/>
      <point x="349" y="485" type="line"/>
      <point x="349" y="385" type="line"/>
    </contour>
  </outline>
</glyph>
<glyph name="acute" format="2">
  <advance width="375"/>
  <unicode hex="00B4"/>
  <outline>
    <contour>
      <point x="304" y="656" type="line"/>
      <point x="124" y="506" type="line"/>
      <point x="65" y="555" type="line"/>
      <point x="215" y="715" type="line"/>
    </contour>
  </outline>
</glyph>
<glyph name="paragraph" format="2">
  <advance width="640"/>
  <unicode hex="00B6"/>
  <outline>
    <contour>
      <point x="395" y="-80" type="line"/>
      <point x="395" y="-45" type="line"/>
      <point x="430" y="-75" type="line"/>
      <point x="429" y="-80" type="line"/>
    </contour>
    <contour>
      <point x="325" y="-80" type="line"/>
      <point x="291" y="-80" type="line"/>
      <point x="290" y="-75" type="line"/>
      <point x="325" y="-45" type="line"/>
    </contour>
    <contour>
      <point x="555" y="-80" type="line"/>
      <point x="555" y="-45" type="line"/>
      <point x="590" y="-75" type="line"/>
      <point x="589" y="-80" type="line"/>
    </contour>
    <contour>
      <point x="485" y="-80" type="line"/>
      <point x="451" y="-80" type="line"/>
      <point x="450" y="-75" type="line"/>
      <point x="485" y="-45" type="line"/>
    </contour>
    <contour>
      <point x="555" y="700" type="line"/>
      <point x="589" y="700" type="line"/>
      <point x="590" y="695" type="line"/>
      <point x="555" y="665" type="line"/>
    </contour>
    <contour>
      <point x="405" y="660" type="line"/>
      <point x="405" y="700" type="line"/>
      <point x="475" y="700" type="line"/>
      <point x="475" y="660" type="line"/>
    </contour>
    <contour>
      <point x="555" y="700" type="line"/>
      <point x="555" y="-80" type="line"/>
      <point x="475" y="-80" type="line"/>
      <point x="475" y="700" type="line"/>
    </contour>
    <contour>
      <point x="405" y="700" type="line"/>
      <point x="405" y="-80" type="line"/>
      <point x="325" y="-80" type="line"/>
      <point x="325" y="700" type="line"/>
    </contour>
    <contour>
      <point x="285" y="240" type="line" smooth="yes"/>
      <point x="145" y="240"/>
      <point x="50" y="325"/>
      <point x="50" y="470" type="curve" smooth="yes"/>
      <point x="50" y="615"/>
      <point x="145" y="700"/>
      <point x="285" y="700" type="curve" smooth="yes"/>
      <point x="365" y="700" type="line"/>
      <point x="365" y="240" type="line"/>
    </contour>
  </outline>
</glyph>
<glyph name="cedilla" format="2">
  <advance width="549"/>
  <unicode hex="00B8"/>
  <anchor x="312" y="0" name="_cedilla"/>
  <outline>
    <contour>
      <point x="338" y="-148" type="curve" smooth="yes"/>
      <point x="338" y="-107"/>
      <point x="291" y="-94"/>
      <point x="226" y="-94" type="curve"/>
      <point x="224" y="-91" type="line"/>
      <point x="316" y="26" type="line"/>
      <point x="360" y="26" type="line"/>
      <point x="297" y="-54" type="line"/>
      <point x="399" y="-57"/>
      <point x="449" y="-79"/>
      <point x="449" y="-135" type="curve" smooth="yes"/>
      <point x="449" y="-185"/>
      <point x="394" y="-234"/>
      <point x="213" y="-234" type="curve"/>
      <point x="211" y="-231" type="line"/>
      <point x="240" y="-198" type="line"/>
      <point x="299" y="-198"/>
      <point x="338" y="-178"/>
    </contour>
  </outline>
</glyph>
<glyph name="guillemotright" format="2">
  <advance width="522"/>
  <unicode hex="00BB"/>
  <outline>
    <contour>
      <point x="204" y="251" type="line"/>
      <point x="54" y="445" type="line"/>
      <point x="121" y="498" type="line"/>
      <point x="307" y="255" type="line"/>
      <point x="121" y="12" type="line"/>
      <point x="54" y="65" type="line"/>
    </contour>
    <contour>
      <point x="381" y="251" type="line"/>
      <point x="231" y="445" type="line"/>
      <point x="299" y="498" type="line"/>
      <point x="484" y="255" type="line"/>
      <point x="299" y="12" type="line"/>
      <point x="231" y="65" type="line"/>
    </contour>
  </outline>
</glyph>
<glyph name="AE" format="2">
  <advance width="1125"/>
  <unicode hex="00C6"/>
  <outline>
    <contour>
      <point x="438" y="700" type="line"/>
      <point x="448" y="658" type="line"/>
      <point x="383" y="695" type="line"/>
      <point x="384" y="700" type="line"/>
    </contour>
    <contour>
      <point x="137" y="0" type="line"/>
      <point x="147" y="35" type="line"/>
      <point x="182" y="5" type="line"/>
      <point x="181" y="0" type="line"/>
    </contour>
    <contour>
      <point x="49" y="0" type="line"/>
      <point x="-5" y="0" type="line"/>
      <point x="-6" y="5" type="line"/>
      <point x="59" y="42" type="line"/>
    </contour>
    <contour>
      <point x="169" y="175" type="line"/>
      <point x="199" y="270" type="line"/>
      <point x="559" y="270" type="line"/>
      <point x="589" y="175" type="line"/>
    </contour>
    <contour>
      <point x="550" y="700" type="line"/>
      <point x="137" y="0" type="line"/>
      <point x="25" y="0" type="line"/>
      <point x="438" y="700" type="line"/>
    </contour>
    <contour>
      <point x="520" y="0" type="line"/>
      <point x="486" y="0" type="line"/>
      <point x="485" y="5" type="line"/>
      <point x="520" y="35" type="line"/>
    </contour>
    <contour>
      <point x="520" y="700" type="line"/>
      <point x="625" y="700" type="line"/>
      <point x="625" y="0" type="line"/>
      <point x="520" y="0" type="line"/>
    </contour>
    <contour>
      <point x="590" y="317" type="line"/>
      <point x="590" y="413" type="line"/>
      <point x="856" y="413" type="line"/>
      <point x="878" y="317" type="line"/>
    </contour>
    <contour>
      <point x="590" y="600" type="line"/>
      <point x="590" y="700" type="line"/>
      <point x="1013" y="700" type="line"/>
      <point x="1005" y="600" type="line"/>
    </contour>
    <contour>
      <point x="1054" y="531" type="line"/>
      <point x="991" y="600" type="line"/>
      <point x="1013" y="700" type="line"/>
      <point x="1059" y="534" type="line"/>
    </contour>
    <contour>
      <point x="829" y="408" type="line"/>
      <point x="860" y="461" type="line"/>
      <point x="865" y="461" type="line"/>
      <point x="904.147" y="268" type="line"/>
      <point x="899" y="265" type="line"/>
      <point x="838" y="329" type="line"/>
    </contour>
    <contour>
      <point x="592" y="0" type="line"/>
      <point x="592" y="100" type="line"/>
      <point x="1021" y="100" type="line"/>
      <point x="1026" y="0" type="line"/>
    </contour>
    <contour>
      <point x="1081" y="173" type="line"/>
      <point x="1085" y="171" type="line"/>
      <point x="1026" y="0" type="line"/>
      <point x="1021" y="100" type="line"/>
    </contour>
  </outline>
</glyph>
<glyph name="Eth" format="2">
  <advance width="757"/>
  <unicode hex="00D0"/>
  <outline>
    <contour>
      <point x="11" y="312" type="line"/>
      <point x="11" y="382" type="line"/>
      <point x="351" y="382" type="line"/>
      <point x="351" y="312" type="line"/>
    </contour>
    <component base="D"/>
  </outline>
</glyph>
<glyph name="Oslash" format="2">
  <advance width="810"/>
  <unicode hex="00D8"/>
  <outline>
    <contour>
      <point x="-15" y="-35" type="line"/>
      <point x="165" y="-35" type="line"/>
      <point x="165" y="-50" type="line"/>
      <point x="-15" y="-50" type="line"/>
    </contour>
    <contour>
      <point x="640" y="750" type="line"/>
      <point x="820" y="750" type="line"/>
      <point x="820" y="735" type="line"/>
      <point x="640" y="735" type="line"/>
    </contour>
    <contour>
      <point x="800" y="750" type="line"/>
      <point x="125" y="-50" type="line"/>
      <point x="5" y="-50" type="line"/>
      <point x="680" y="750" type="line"/>
    </contour>
    <component base="O"/>
  </outline>
</glyph>
<glyph name="Thorn" format="2">
  <advance width="703"/>
  <unicode hex="00DE"/>
  <outline>
    <contour>
      <point x="205" y="700" type="line"/>
      <point x="239" y="700" type="line"/>
      <point x="240" y="695" type="line"/>
      <point x="205" y="665" type="line"/>
    </contour>
    <contour>
      <point x="205" y="0" type="line"/>
      <point x="205" y="35" type="line"/>
      <point x="240" y="5" type="line"/>
      <point x="239" y="0" type="line"/>
    </contour>
    <contour>
      <point x="100" y="0" type="line"/>
      <point x="66" y="0" type="line"/>
      <point x="65" y="5" type="line"/>
      <point x="100" y="35" type="line"/>
    </contour>
    <contour>
      <point x="100" y="700" type="line"/>
      <point x="100" y="665" type="line"/>
      <point x="65" y="695" type="line"/>
      <point x="66" y="700" type="line"/>
    </contour>
    <contour>
      <point x="100" y="700" type="line"/>
      <point x="205" y="700" type="line"/>
      <point x="205" y="0" type="line"/>
      <point x="100" y="0" type="line"/>
    </contour>
    <contour>
      <point x="147" y="460" type="line"/>
      <point x="147" y="560" type="line"/>
      <point x="430" y="560" type="line" smooth="yes"/>
      <point x="565" y="560"/>
      <point x="668" y="509"/>
      <point x="668" y="365" type="curve" smooth="yes"/>
      <point x="668" y="222"/>
      <point x="565" y="170"/>
      <point x="430" y="170" type="curve" smooth="yes"/>
      <point x="147" y="170" type="line"/>
      <point x="147" y="270" type="line"/>
      <point x="435" y="270" type="line" smooth="yes"/>
      <point x="511" y="270"/>
      <point x="558" y="299"/>
      <point x="558" y="365" type="curve" smooth="yes"/>
      <point x="558" y="431"/>
      <point x="511" y="460"/>
      <point x="435" y="460" type="curve" smooth="yes"/>
    </contour>
  </outline>
</glyph>
<glyph name="Hbar" format="2">
  <advance width="781"/>
  <unicode hex="0126"/>
  <outline>
    <contour>
      <point x="10" y="502" type="line"/>
      <point x="10" y="572" type="line"/>
      <point x="771" y="572" type="line"/>
      <point x="771" y="502" type="line"/>
    </contour>
    <component base="H"/>
  </outline>
</glyph>
<glyph name="Lslash" format="2">
  <advance width="670"/>
  <unicode hex="0141"/>
  <outline>
    <contour>
      <point x="15" y="269" type="line"/>
      <point x="15" y="369" type="line"/>
      <point x="355" y="580" type="line"/>
      <point x="355" y="480" type="line"/>
    </contour>
    <component base="L"/>
  </outline>
</glyph>
<glyph name="Eng" format="2">
  <advance width="792"/>
  <unicode hex="014A"/>
  <outline>
    <contour>
      <point x="195" y="700" type="line"/>
      <point x="229" y="700" type="line"/>
      <point x="230" y="695" type="line"/>
      <point x="195" y="665" type="line"/>
    </contour>
    <contour>
      <point x="195" y="0" type="line"/>
      <point x="195" y="35" type="line"/>
      <point x="230" y="5" type="line"/>
      <point x="229" y="0" type="line"/>
    </contour>
    <contour>
      <point x="85" y="0" type="line"/>
      <point x="51" y="0" type="line"/>
      <point x="50" y="5" type="line"/>
      <point x="85" y="35" type="line"/>
    </contour>
    <contour>
      <point x="85" y="700" type="line"/>
      <point x="85" y="665" type="line"/>
      <point x="50" y="695" type="line"/>
      <point x="51" y="700" type="line"/>
    </contour>
    <contour>
      <point x="306" y="160" type="line"/>
      <point x="458" y="234" type="line"/>
      <point x="461" y="230" type="line"/>
      <point x="352" y="123" type="line"/>
      <point x="305" y="156" type="line"/>
    </contour>
    <contour>
      <point x="461" y="230" type="line"/>
      <point x="447" y="202"/>
      <point x="443" y="186"/>
      <point x="443" y="166" type="curve" smooth="yes"/>
      <point x="443" y="118"/>
      <point x="472" y="81"/>
      <point x="526" y="81" type="curve" smooth="yes"/>
      <point x="576" y="81"/>
      <point x="602" y="111.793"/>
      <point x="602" y="205" type="curve" smooth="yes"/>
      <point x="602" y="440" type="line"/>
      <point x="712" y="440" type="line"/>
      <point x="712" y="180" type="line" smooth="yes"/>
      <point x="712" y="41.9608"/>
      <point x="643" y="-20"/>
      <point x="529" y="-20" type="curve" smooth="yes"/>
      <point x="416" y="-20"/>
      <point x="346" y="50"/>
      <point x="331" y="160" type="curve"/>
    </contour>
    <contour>
      <point x="190" y="499" type="curve"/>
      <point x="126" y="550" type="line"/>
      <point x="211" y="640"/>
      <point x="311" y="720"/>
      <point x="454" y="720" type="curve" smooth="yes"/>
      <point x="608" y="720"/>
      <point x="712" y="649"/>
      <point x="712" y="520" type="curve" smooth="yes"/>
      <point x="712" y="440" type="line"/>
      <point x="602" y="440" type="line"/>
      <point x="602" y="495" type="line" smooth="yes"/>
      <point x="602" y="594"/>
      <point x="521" y="620"/>
      <point x="431" y="620" type="curve" smooth="yes"/>
      <point x="325" y="620"/>
      <point x="234" y="570"/>
    </contour>
    <contour>
      <point x="85" y="700" type="line"/>
      <point x="195" y="700" type="line"/>
      <point x="195" y="0" type="line"/>
      <point x="85" y="0" type="line"/>
    </contour>
  </outline>
</glyph>
<glyph name="OE" format="2">
  <advance width="1105"/>
  <unicode hex="0152"/>
  <outline>
    <contour>
      <point x="370" y="700" type="curve" smooth="yes"/>
      <point x="605" y="700" type="line"/>
      <point x="605" y="600" type="line"/>
      <point x="380" y="600" type="line" smooth="yes"/>
      <point x="247" y="600"/>
      <point x="165" y="513"/>
      <point x="165" y="350" type="curve" smooth="yes"/>
      <point x="165" y="187"/>
      <point x="247" y="100"/>
      <point x="380" y="100" type="curve" smooth="yes"/>
      <point x="605" y="100" type="line"/>
      <point x="605" y="0" type="line"/>
      <point x="370" y="0" type="line" smooth="yes"/>
      <point x="186" y="0"/>
      <point x="50" y="121"/>
      <point x="50" y="350" type="curve" smooth="yes"/>
      <point x="50" y="579"/>
      <point x="186" y="700"/>
    </contour>
    <contour>
      <point x="500" y="700" type="line"/>
      <point x="605" y="700" type="line"/>
      <point x="605" y="0" type="line"/>
      <point x="500" y="0" type="line"/>
    </contour>
    <contour>
      <point x="570" y="317" type="line"/>
      <point x="570" y="413" type="line"/>
      <point x="836" y="413" type="line"/>
      <point x="858" y="317" type="line"/>
    </contour>
    <contour>
      <point x="570" y="600" type="line"/>
      <point x="570" y="700" type="line"/>
      <point x="993" y="700" type="line"/>
      <point x="985" y="600" type="line"/>
    </contour>
    <contour>
      <point x="1034" y="531" type="line"/>
      <point x="971" y="600" type="line"/>
      <point x="993" y="700" type="line"/>
      <point x="1039" y="534" type="line"/>
    </contour>
    <contour>
      <point x="809" y="408" type="line"/>
      <point x="840" y="461" type="line"/>
      <point x="845" y="461" type="line"/>
      <point x="884.147" y="268" type="line"/>
      <point x="879" y="265" type="line"/>
      <point x="818" y="329" type="line"/>
    </contour>
    <contour>
      <point x="572" y="0" type="line"/>
      <point x="572" y="100" type="line"/>
      <point x="1001" y="100" type="line"/>
      <point x="1006" y="0" type="line"/>
    </contour>
    <contour>
      <point x="1061" y="173" type="line"/>
      <point x="1065" y="171" type="line"/>
      <point x="1006" y="0" type="line"/>
      <point x="1001" y="100" type="line"/>
    </contour>
  </outline>
</glyph>
<glyph name="Tbar" format="2">
  <advance width="732"/>
  <unicode hex="0166"/>
  <outline>
    <contour>
      <point x="161" y="342" type="line"/>
      <point x="161" y="412" type="line"/>
      <point x="571" y="412" type="line"/>
      <point x="571" y="342" type="line"/>
    </contour>
    <component base="T"/>
  </outline>
</glyph>
<glyph name="macroncmb" format="2">
  <unicode hex="0304"/>
  <anchor x="-209" y="700" name="_top"/>
  <outline>
    <contour>
      <point x="-329" y="800" type="line"/>
      <point x="-329" y="880" type="line"/>
      <point x="-89" y="880" type="line"/>
      <point x="-89" y="800" type="line"/>
    </contour>
  </outline>
</glyph>
<glyph name="uni0307" format="2">
  <unicode hex="0307"/>
  <outline>
    <contour>
      <point x="-227" y="499" type="line"/>
      <point x="-227" y="644" type="line"/>
      <point x="-132" y="644" type="line"/>
      <point x="-132" y="499" type="line"/>
    </contour>
  </outline>
</glyph>
<glyph name="uni1E9E" format="2">
  <advance width="861"/>
  <unicode hex="1E9E"/>
  <outline>
    <contour>
      <point x="451" y="415" type="line"/>
      <point x="559" y="400" type="line"/>
      <point x="417" y="298" type="line"/>
      <point x="412" y="303" type="line"/>
    </contour>
    <contour>
      <point x="185" y="0" type="line"/>
      <point x="185" y="35" type="line"/>
      <point x="220" y="5" type="line"/>
      <point x="219" y="0" type="line"/>
    </contour>
    <contour>
      <point x="75" y="0" type="line"/>
      <point x="41" y="0" type="line"/>
      <point x="40" y="5" type="line"/>
      <point x="75" y="35" type="line"/>
    </contour>
    <contour>
      <point x="545" y="-12" type="curve" smooth="yes"/>
      <point x="439" y="-12"/>
      <point x="351" y="16"/>
      <point x="305" y="51" type="curve"/>
      <point x="355" y="172" type="line"/>
      <point x="359" y="172" type="line"/>
      <point x="389" y="103"/>
      <point x="471" y="84"/>
      <point x="531" y="84" type="curve" smooth="yes"/>
      <point x="611" y="84"/>
      <point x="707" y="103"/>
      <point x="707" y="202" type="curve" smooth="yes"/>
      <point x="707" y="271"/>
      <point x="648.722" y="323.588"/>
      <point x="543.141" y="323.588" type="curve" smooth="yes"/>
      <point x="492.931" y="323.588"/>
      <point x="450" y="316"/>
      <point x="417" y="298" type="curve"/>
      <point x="451" y="415" type="line"/>
      <point x="501" y="415"/>
      <point x="539" y="479"/>
      <point x="609" y="561" type="curve"/>
      <point x="579" y="589"/>
      <point x="501" y="611"/>
      <point x="422" y="611" type="curve" smooth="yes"/>
      <point x="292" y="611"/>
      <point x="183" y="577"/>
      <point x="183" y="419" type="curve" smooth="yes"/>
      <point x="185" y="0" type="line"/>
      <point x="75" y="0" type="line"/>
      <point x="75" y="430" type="line" smooth="yes"/>
      <point x="75" y="649"/>
      <point x="241" y="712"/>
      <point x="431" y="712" type="curve" smooth="yes"/>
      <point x="598" y="712"/>
      <point x="721" y="630"/>
      <point x="783" y="562" type="curve"/>
      <point x="780" y="557" type="line"/>
      <point x="700" y="557"/>
      <point x="631" y="437"/>
      <point x="596" y="397" type="curve"/>
      <point x="716" y="397"/>
      <point x="831" y="345"/>
      <point x="831" y="189" type="curve" smooth="yes"/>
      <point x="831" y="65"/>
      <point x="713" y="-12"/>
    </contour>
  </outline>
</glyph>
<glyph name="uni2010" format="2">
  <advance width="320"/>
  <unicode hex="2010"/>
  <outline>
    <contour>
      <point x="20" y="225" type="line"/>
      <point x="20" y="325" type="line"/>
      <point x="300" y="325" type="line"/>
      <point x="300" y="225" type="line"/>
    </contour>
  </outline>
</glyph>
<glyph name="figuredash" format="2">
  <advance width="446"/>
  <unicode hex="2012"/>
  <outline>
    <contour>
      <point x="20" y="225" type="line"/>
      <point x="20" y="325" type="line"/>
      <point x="426" y="325" type="line"/>
      <point x="426" y="225" type="line"/>
    </contour>
  </outline>
</glyph>
<glyph name="quoteright" format="2">
  <advance width="275"/>
  <unicode hex="2019"/>
  <outline>
    <contour>
      <point x="90" y="585" type="line"/>
      <point x="90" y="710" type="line"/>
      <point x="185" y="710" type="line"/>
      <point x="185" y="599" type="line"/>
      <point x="126" y="485" type="line"/>
      <point x="91" y="485" type="line"/>
      <point x="135" y="585" type="line"/>
    </contour>
  </outline>
</glyph>
<glyph name="daggerdbl" format="2">
  <advance width="594"/>
  <unicode hex="2021"/>
  <outline>
    <contour>
      <point x="350" y="700" type="line"/>
      <point x="384" y="700" type="line"/>
      <point x="385" y="695" type="line"/>
      <point x="350" y="665" type="line"/>
    </contour>
    <contour>
      <point x="350" y="-150" type="line"/>
      <point x="350" y="-115" type="line"/>
      <point x="385" y="-145" type="line"/>
      <point x="384" y="-150" type="line"/>
    </contour>
    <contour>
      <point x="245" y="-150" type="line"/>
      <point x="211" y="-150" type="line"/>
      <point x="210" y="-145" type="line"/>
      <point x="245" y="-115" type="line"/>
    </contour>
    <contour>
      <point x="245" y="700" type="line"/>
      <point x="245" y="665" type="line"/>
      <point x="210" y="695" type="line"/>
      <point x="211" y="700" type="line"/>
    </contour>
    <contour>
      <point x="90" y="135" type="line"/>
      <point x="505" y="135" type="line"/>
      <point x="505" y="40" type="line"/>
      <point x="90" y="40" type="line"/>
    </contour>
    <contour>
      <point x="90" y="540" type="line"/>
      <point x="505" y="540" type="line"/>
      <point x="505" y="445" type="line"/>
      <point x="90" y="445" type="line"/>
    </contour>
    <contour>
      <point x="245" y="700" type="line"/>
      <point x="350" y="700" type="line"/>
      <point x="350" y="-150" type="line"/>
      <point x="245" y="-150" type="line"/>
    </contour>
  </outline>
</glyph>
<glyph name="bullet" format="2">
  <advance width="300"/>
  <unicode hex="2022"/>
  <outline>
    <contour>
      <point x="106" y="354" type="line"/>
      <point x="106" y="499" type="line"/>
      <point x="201" y="499" type="line"/>
      <point x="201" y="354" type="line"/>
    </contour>
  </outline>
</glyph>
<glyph name="guilsinglright" format="2">
  <advance width="344"/>
  <unicode hex="203A"/>
  <outline>
    <contour>
      <point x="203" y="251" type="line"/>
      <point x="53" y="445" type="line"/>
      <point x="121" y="498" type="line"/>
      <point x="306" y="255" type="line"/>
      <point x="121" y="12" type="line"/>
      <point x="53" y="65" type="line"/>
    </contour>
  </outline>
</glyph>
<glyph name="Euro" format="2">
  <advance width="781"/>
  <unicode hex="20AC"/>
  <outline>
    <contour>
      <point x="1" y="251" type="line"/>
      <point x="1" y="321" type="line"/>
      <point x="451" y="321" type="line"/>
      <point x="451" y="251" type="line"/>
    </contour>
    <contour>
      <point x="1" y="391" type="line"/>
      <point x="1" y="461" type="line"/>
      <point x="451" y="461" type="line"/>
      <point x="451" y="391" type="line"/>
    </contour>
    <contour>
      <point x="576" y="665" type="line"/>
      <point x="626" y="705" type="line"/>
      <point x="630" y="704" type="line"/>
      <point x="711" y="467" type="line"/>
      <point x="705" y="463" type="line"/>
    </contour>
    <contour>
      <point x="165" y="350" type="curve" smooth="yes"/>
      <point x="165" y="212"/>
      <point x="242" y="95"/>
      <point x="410" y="95" type="curve" smooth="yes"/>
      <point x="559" y="95"/>
      <point x="665" y="201"/>
      <point x="684" y="313" type="curve"/>
      <point x="691" y="315" type="line"/>
      <point x="741" y="163" type="line"/>
      <point x="692" y="96"/>
      <point x="577" y="-10"/>
      <point x="415" y="-10" type="curve" smooth="yes"/>
      <point x="207" y="-10"/>
      <point x="50" y="136"/>
      <point x="50" y="350" type="curve" smooth="yes"/>
      <point x="50" y="564"/>
      <point x="202" y="710"/>
      <point x="410" y="710" type="curve" smooth="yes"/>
      <point x="522" y="710"/>
      <point x="596" y="657"/>
      <point x="635" y="625" type="curve"/>
      <point x="705" y="463" type="line"/>
      <point x="646" y="540"/>
      <point x="549" y="605"/>
      <point x="420" y="605" type="curve" smooth="yes"/>
      <point x="252" y="605"/>
      <point x="165" y="498"/>
    </contour>
  </outline>
</glyph>
<glyph name="Cowboy" format="2">
  <advance width="898"/>
  <unicode hex="F8FF"/>
  <outline>
    <contour>
      <point x="468" y="785" type="curve" smooth="yes"/>
      <point x="526" y="785"/>
      <point x="586" y="728"/>
      <point x="616" y="696" type="curve"/>
      <point x="629" y="694"/>
      <point x="640.95" y="692"/>
      <point x="651" y="692" type="curve" smooth="yes"/>
      <point x="691" y="692"/>
      <point x="704" y="706"/>
      <point x="719" y="698" type="curve" smooth="yes"/>
      <point x="734" y="690"/>
      <point x="769" y="621"/>
      <point x="763" y="581" type="curve" smooth="yes"/>
      <point x="757" y="541"/>
      <point x="731" y="435"/>
      <point x="679" y="429" type="curve" smooth="yes"/>
      <point x="668" y="428"/>
      <point x="649" y="427"/>
      <point x="625" y="425" type="curve"/>
      <point x="628" y="432"/>
      <point x="630" y="440"/>
      <point x="631" y="450" type="curve" smooth="yes"/>
      <point x="634" y="479"/>
      <point x="633" y="515"/>
      <point x="627" y="512" type="curve" smooth="yes"/>
      <point x="621" y="509"/>
      <point x="628" y="559"/>
      <point x="614" y="572" type="curve" smooth="yes"/>
      <point x="600" y="585"/>
      <point x="566" y="618"/>
      <point x="480" y="620" type="curve" smooth="yes"/>
      <point x="394" y="622"/>
      <point x="376" y="627"/>
      <point x="360" y="608" type="curve" smooth="yes"/>
      <point x="344" y="589"/>
      <point x="346" y="576"/>
      <point x="345" y="563" type="curve" smooth="yes"/>
      <point x="344" y="550"/>
      <point x="351" y="490"/>
      <point x="351" y="490" type="curve"/>
      <point x="351" y="490"/>
      <point x="328" y="508"/>
      <point x="324" y="502" type="curve" smooth="yes"/>
      <point x="320" y="496"/>
      <point x="326" y="462"/>
      <point x="332" y="440" type="curve" smooth="yes"/>
      <point x="333" y="437"/>
      <point x="335" y="432"/>
      <point x="336" y="429" type="curve"/>
      <point x="332" y="430"/>
      <point x="329" y="431"/>
      <point x="326" y="432" type="curve" smooth="yes"/>
      <point x="267" y="457"/>
      <point x="212" y="526"/>
      <point x="206" y="585" type="curve" smooth="yes"/>
      <point x="200" y="644"/>
      <point x="229" y="732"/>
      <point x="229" y="732" type="curve"/>
      <point x="229" y="732"/>
      <point x="242" y="713"/>
      <point x="280" y="713" type="curve" smooth="yes"/>
      <point x="308.526" y="713"/>
      <point x="339.93" y="719.492"/>
      <point x="358" y="723.577" type="curve"/>
      <point x="375" y="749"/>
      <point x="414.121" y="785"/>
    </contour>
    <contour>
      <point x="550" y="551" type="curve" smooth="yes"/>
      <point x="570" y="551"/>
      <point x="590" y="524"/>
      <point x="590" y="524" type="curve"/>
      <point x="590" y="524"/>
      <point x="562" y="541"/>
      <point x="545" y="541" type="curve" smooth="yes"/>
      <point x="528" y="541"/>
      <point x="512" y="527"/>
      <point x="512" y="527" type="curve" smooth="yes"/>
      <point x="512" y="527"/>
      <point x="529" y="550"/>
      <point x="549" y="551" type="curve" smooth="yes"/>
      <point x="550" y="551"/>
      <point x="549" y="551"/>
    </contour>
    <contour>
      <point x="420" y="543" type="curve" smooth="yes"/>
      <point x="441" y="543"/>
      <point x="453" y="532"/>
      <point x="453" y="532" type="curve" smooth="yes"/>
      <point x="453" y="532"/>
      <point x="436" y="535"/>
      <point x="417" y="534" type="curve" smooth="yes"/>
      <point x="398" y="533"/>
      <point x="376" y="509"/>
      <point x="376" y="509" type="curve"/>
      <point x="376" y="509"/>
      <point x="392" y="540"/>
      <point x="415" y="542" type="curve" smooth="yes"/>
      <point x="416" y="542"/>
      <point x="419" y="543"/>
    </contour>
    <contour>
      <point x="502" y="405" type="curve" smooth="yes"/>
      <point x="504" y="405" type="line" smooth="yes"/>
      <point x="513" y="404"/>
      <point x="539" y="395"/>
      <point x="539" y="395" type="curve"/>
      <point x="539" y="395"/>
      <point x="500" y="392"/>
      <point x="496" y="394" type="curve" smooth="yes"/>
      <point x="492" y="396"/>
      <point x="494" y="405"/>
    </contour>
    <contour>
      <point x="472" y="402" type="curve" smooth="yes"/>
      <point x="477" y="402"/>
      <point x="480" y="401"/>
      <point x="480" y="397" type="curve" smooth="yes"/>
      <point x="479" y="386"/>
      <point x="425" y="385"/>
      <point x="425" y="385" type="curve"/>
      <point x="425" y="385"/>
      <point x="431" y="391"/>
      <point x="444" y="395" type="curve" smooth="yes"/>
      <point x="452" y="398"/>
      <point x="464" y="402"/>
    </contour>
    <contour>
      <point x="378" y="318" type="curve"/>
      <point x="397" y="287"/>
      <point x="421" y="267"/>
      <point x="471" y="269" type="curve" smooth="yes"/>
      <point x="509" y="271"/>
      <point x="547" y="283"/>
      <point x="571" y="309" type="curve"/>
      <point x="570" y="278"/>
      <point x="568" y="249"/>
      <point x="563" y="236" type="curve" smooth="yes"/>
      <point x="550" y="204"/>
      <point x="471" y="186"/>
      <point x="471" y="186" type="curve"/>
      <point x="471" y="186"/>
      <point x="401" y="238"/>
      <point x="384" y="276" type="curve" smooth="yes"/>
      <point x="379" y="286"/>
      <point x="377" y="301"/>
    </contour>
    <contour>
      <point x="378" y="318" type="curve"/>
      <point x="378" y="318"/>
      <point x="358" y="233"/>
      <point x="345" y="71" type="curve" smooth="yes"/>
      <point x="343" y="48"/>
      <point x="343" y="23"/>
      <point x="342" y="0" type="curve"/>
      <point x="0" y="0" type="line"/>
      <point x="0" y="22" type="line"/>
      <point x="14" y="72"/>
      <point x="30" y="132"/>
      <point x="42" y="160" type="curve" smooth="yes"/>
      <point x="65" y="215"/>
      <point x="78" y="234"/>
      <point x="78" y="234" type="curve"/>
      <point x="78" y="234"/>
      <point x="162" y="263"/>
      <point x="229" y="263" type="curve" smooth="yes"/>
      <point x="296" y="263"/>
      <point x="315" y="261"/>
      <point x="357" y="299" type="curve" smooth="yes"/>
      <point x="370" y="310"/>
      <point x="378" y="318"/>
    </contour>
    <contour>
      <point x="471" y="186" type="line"/>
      <point x="505" y="158" type="line"/>
      <point x="483" y="108" type="line"/>
      <point x="483" y="108"/>
      <point x="475" y="76"/>
      <point x="511" y="13" type="curve" smooth="yes"/>
      <point x="513" y="9"/>
      <point x="515" y="5"/>
      <point x="517" y="0" type="curve"/>
      <point x="412" y="0" type="line"/>
      <point x="423" y="34"/>
      <point x="435" y="50"/>
      <point x="442" y="63" type="curve" smooth="yes"/>
      <point x="452" y="82"/>
      <point x="460" y="110"/>
      <point x="460" y="110" type="curve"/>
      <point x="444" y="154" type="line"/>
    </contour>
    <contour>
      <point x="578" y="285" type="curve"/>
      <point x="588" y="277"/>
      <point x="596" y="270"/>
      <point x="604" y="263" type="curve" smooth="yes"/>
      <point x="650" y="223"/>
      <point x="717" y="215"/>
      <point x="790" y="186" type="curve" smooth="yes"/>
      <point x="863" y="157"/>
      <point x="883" y="157.168"/>
      <point x="883" y="50" type="curve" smooth="yes"/>
      <point x="883" y="34"/>
      <point x="883" y="17"/>
      <point x="883" y="0" type="curve"/>
      <point x="616" y="0" type="line"/>
      <point x="615" y="9"/>
      <point x="615" y="17"/>
      <point x="614" y="26" type="curve" smooth="yes"/>
      <point x="607" y="120"/>
      <point x="589" y="229"/>
    </contour>
  </outline>
</glyph>
